/* XPM */
static char *_b01dd4f562645ddc475181a66359cb6IedR0q6WBK7MuQzo[] = {
/* columns rows colors chars-per-pixel */
"64 64 252 2 ",
"   c #040202",
".  c #0B0202",
"X  c #09080A",
"o  c #130203",
"O  c #1B0203",
"+  c #180A0A",
"@  c #080D14",
"#  c #170D14",
"$  c #0B1419",
"%  c #121519",
"&  c #141A1B",
"*  c #1A1717",
"=  c #15120D",
"-  c #280604",
";  c #360806",
":  c #281307",
">  c #39160A",
",  c #270C13",
"<  c #360D17",
"1  c #271718",
"2  c #341719",
"3  c #1A231D",
"4  c #27241B",
"5  c #382417",
"6  c #0A1825",
"7  c #141D23",
"8  c #181D26",
"9  c #071B31",
"0  c #381923",
"q  c #2B1A24",
"w  c #0E212C",
"e  c #1C2325",
"r  c #1C252B",
"t  c #15252B",
"y  c #0E2436",
"u  c #1C2D3C",
"i  c #172734",
"p  c #1D323C",
"a  c #232A2C",
"s  c #262727",
"d  c #372827",
"f  c #39332C",
"g  c #252D35",
"h  c #2B3234",
"j  c #2A343C",
"k  c #27343A",
"l  c #333B3C",
"z  c #373637",
"x  c #342F31",
"c  c #450706",
"v  c #56170C",
"b  c #481716",
"n  c #571615",
"m  c #50110D",
"M  c #671718",
"N  c #751A1C",
"B  c #650C0D",
"V  c #492819",
"C  c #552C1B",
"Z  c #6B2B1A",
"A  c #481C27",
"S  c #541A29",
"D  c #731E25",
"F  c #681C22",
"G  c #462628",
"H  c #572726",
"J  c #4A3429",
"K  c #583927",
"L  c #482A33",
"P  c #552937",
"I  c #463937",
"U  c #563836",
"Y  c #682426",
"T  c #762426",
"R  c #65382A",
"E  c #773737",
"W  c #6D3334",
"Q  c #3A423B",
"!  c #564539",
"~  c #4B4538",
"^  c #65493A",
"/  c #764B37",
"(  c #78563A",
")  c #744C2F",
"_  c #75411A",
"`  c #1D3243",
"'  c #283946",
"]  c #363D45",
"[  c #25384C",
"{  c #593A45",
"}  c #4C3A43",
"|  c #703747",
" . c #2C404B",
".. c #32424C",
"X. c #3A4648",
"o. c #374954",
"O. c #3A515D",
"+. c #334951",
"@. c #3C5064",
"#. c #474748",
"$. c #574A48",
"%. c #57534B",
"&. c #464D56",
"*. c #534C53",
"=. c #475658",
"-. c #575858",
";. c #4B504B",
":. c #674A49",
">. c #764A47",
",. c #68564A",
"<. c #785645",
"1. c #665957",
"2. c #714F53",
"3. c #58625A",
"4. c #69635B",
"5. c #776658",
"6. c #77634E",
"7. c #495A67",
"8. c #595D63",
"9. c #4C626B",
"0. c #586668",
"q. c #576A75",
"w. c #576E77",
"e. c #666667",
"r. c #766A66",
"t. c #79746D",
"y. c #766D71",
"u. c #687679",
"i. c #787877",
"p. c #6B726E",
"a. c #745F65",
"s. c #862828",
"d. c #913134",
"f. c #A53637",
"g. c #881D1F",
"h. c #8C5432",
"j. c #93663B",
"k. c #A76A3B",
"l. c #AE7038",
"z. c #B2533F",
"x. c #8C3742",
"c. c #A43A44",
"v. c #994549",
"b. c #865C47",
"n. c #875854",
"m. c #925251",
"M. c #B74B4A",
"N. c #A85855",
"B. c #B85556",
"V. c #AC494D",
"C. c #886449",
"Z. c #966846",
"A. c #866857",
"S. c #956955",
"D. c #8B735D",
"F. c #98755A",
"G. c #98734B",
"H. c #A97648",
"J. c #A77957",
"K. c #B47450",
"L. c #925068",
"P. c #B25C69",
"I. c #887568",
"U. c #987866",
"Y. c #877876",
"T. c #947A76",
"R. c #916869",
"E. c #B06F6B",
"W. c #C75254",
"Q. c #C77070",
"!. c #CE685C",
"~. c #75817C",
"^. c #B88651",
"/. c #88827A",
"(. c #968579",
"). c #99816A",
"_. c #A8866A",
"`. c #A78977",
"'. c #BA9878",
"]. c #B68E6D",
"[. c #C99658",
"{. c #CA8E56",
"}. c #CC976B",
"|. c #D7A869",
" X c #D8A877",
".X c #D8B478",
"XX c #E5B777",
"oX c #E8B071",
"OX c #E4956C",
"+X c #E3C27D",
"@X c #677985",
"#X c #7C7E85",
"$X c #5E7481",
"%X c #857D81",
"&X c #B36686",
"*X c #CA769B",
"=X c #798587",
"-X c #758B96",
";X c #7E9299",
":X c #6C848E",
">X c #888887",
",X c #978B85",
"<X c #99938A",
"1X c #8A9899",
"2X c #989997",
"3X c #8C9091",
"4X c #A79788",
"5X c #B59B89",
"6X c #AD948F",
"7X c #A8A399",
"8X c #B5A69B",
"9X c #889AA3",
"0X c #979FA2",
"qX c #97A5A7",
"wX c #9AADB5",
"eX c #9DB3BC",
"rX c #8CA3AC",
"tX c #A7A8A8",
"yX c #A8B5B8",
"uX c #B5B9B9",
"iX c #B3B2AB",
"pX c #989F9F",
"aX c #CC9D87",
"sX c #D1AC90",
"dX c #E4BA87",
"fX c #EDB888",
"gX c #CAB6AB",
"hX c #E7BDB4",
"jX c #F6C689",
"kX c #F7D797",
"lX c #F0CB93",
"zX c #D1C6BA",
"xX c #F2D5AB",
"cX c #FDE4A8",
"vX c #FDE8B6",
"bX c #FDF3BB",
"nX c #E5CC95",
"mX c #ACBBC3",
"MX c #B9C4C8",
"NX c #B5C8D0",
"BX c #C7D4D9",
"VX c #D1D1CC",
"CX c #EDDACE",
"ZX c #FBE8C8",
"AX c #FEF4CC",
"SX c #FEF7D9",
"DX c #FAE7D8",
"FX c #D5E4E7",
"GX c #FEF7E9",
"HX c #FBF4EE",
"JX c #CBDCE1",
"KX c #BAC0BC",
/* pixels */
"    X @ & s a s 8 i ` u i 8 s 1.<X! 4 4 (.^ ).~ J %.~ %.~ ~ ^ v.W.W.W.z.M.N.I.I.i.i.~.3X1X1X7XtXwXyXJXBXJXNXNXmXrX:X9.@.[ ' k k ",
"      $ % a x s s g ' ` g 8 & q 5.7X~ 4 4X6.I.K ~ ! %.%.%.U m.V.W.W.M.W.z.d.n.I./.~.=X1X1XpXpXqXqXKXFXJXJXJXNXeXrX-X$X@. .' u ' ",
"X   X g & h h a a k [ ] k 3 4 s f (.(.f 4X^ 4X! ! ! ,.6.2.n.V.B.W.W.M.z.v.V.m.n./.Y.>X=X1X1XpXpXqXyXFXFXJXNXNXeXrX-X$X@.' ' j ' ",
"X   & Q & k Q Q ] X.o.o.] h s 1 5 ^ 7X/.(.5.5X~ ! ^ ,.A.n.V.P.B.W.M.M.f.M.v.Y H R.Y.>X>X1XqXqXpXqXwXBXFXJXNXmXeXrX-X$XO.k ....l ",
"X   3 Q $ k ;.;.3.p.w.9.X.s ~ $.J ! ! zXt.).5XU >.,.<.n.m.N.W.W.W.c.M.c.c.N B c >.T.2XqX9XyX9X0XqXyXBXJXNXNXmXeX9X:Xw. .' ..o.] ",
"    a h $ h 3.;.o.0.=X=X0.z ! ! ! ! : `.(.I.aX/ <.<.<.n.N.V.!.W.W.W.M.c.g.M D S A Y.0XtXyXtX0XrXwXyXNXNXNXNXeXeX;X:X9. ...' '  .",
"X X a h $ Q Q Q 3.3.w.-.#.%.4.5 5.~ : ^ ).`.5XR b.b.b.A.h.m.!.Q.W.B.B.d.B T D F A ,X7XyXuXtX0XqXyXeXyXNXNXwXrXeX1X$X7. . .i  ...",
"X X a h X 3 Q =.3.=.~.e.z f 4.( ( ^ J J 5.aX_.W / b.n.S.R N.Q.Q.P.Q.V.N g.T F n W 7X3XtXtXuX2XtXyXyXeXeXNXeXwXeXrXw.3.+.i w =...",
"    a a 3 & Q 3.3.4.~.p.~ 5 U 5.4X^ ^ ^ D.sXU.h.j.b.S.S.n S.}.Q.P.d.Y D D D D n | 6Xy.0XtXtXmXyXyXeXwXeXmXeXNXrXqXw.u.O.t w q. .",
"X X X $ & = = ! ~.3.p.i.1.! J C F.A.) b.S.sXJ./ b.C.S.Z.v m.*XP.>.R m T D D D n >.6Xd i.KXKXiXyXyXeXwXrXeXeXNXNX1X0.u.X.7 t w.' ",
"X X   @ 3 = = %./.4.! 3./.).( C S.S.<.) E.sXZ.Z.Z.G.S.m.v N.&Xm.R.^ ; Y F F F M / &X. y.VXmXyXyXwXwXwX;X;XeXNXBX9X0.u.X.w k :Xp ",
"X X X = 3 3 f t.<X~.%.~ 4XgX5XS.b./ _.b.}.sXj.Z.G.H.J.j.v E.P.n.R.L - Y F D D n E 6Xo >XVXmXVXyXqXqXrXeXeX;XwXNXqX0.=X;.$  .9Xp ",
"X   @ $ a f ;.7XiX7X/.4./.`.gX].G.R J.}.aX XH.H.J.J.^.b.v E.N.L.:.= - H F D D B | T.o ,XVXMXBXMXyXMXyXeX;X;XrXmXpX=.u.l $ =.9Xy ",
"X X @ $ e = 4 /.<X<X<Xe.Y./.sXsXsXF._ ^.lXdXH.{.{.^.}.h.m E.n.n.$.O - S F N D n v.T.o <XBXKXVXmX1XqX;X;X;X;X;XqX1X3.~.Q t =.;Xy ",
"X X @ % 3 4 Q 7X/.(.<X4.4.6.5.'.'.sX}.K.lXfXK.[.[.].}.C.v F.6.2.G O - b D M F n n.&X. 2XVXyXuXiX0.=.+.=.w.=X;XyXu.3.<Xh $  .7.y ",
"@   @ 7 3 ~ ,.<X<X<X7X5.~ ! J ).G.S.fX}.dXoX|.oX|.|.dXG.v n.2.I d , o < Y F F m n.,Xo 7XVXMXmXiXw.=.+.Q 9.=X=XtXt.5.7Xs e  ...9 ",
"@ X @ e e Q ~ (.8X4X4X4.~ f V ( ^.6..X|.XXjX|..XnX.XdX}.5X>.L , + O . - Y T B m U.(.. 7XVXKXKXpX3.~.9. .9.~.3.`.^.G.D.d Q +.o.@.",
"X X & e a s f (.7X(.(.6.~ V 5 C }..X^.XXjXjXXXlXnXxXkX].S.>.O :.T.O o : C M N m E.T.  7XVXiXKX3X3.3.:Xw.9.u.3.).{.H.j.! Q t [ @.",
"$ $ 8 & s s 4 r.(.(.6.4.( K V ( ).|.^.+XjXXXlXlXxXxXvX'.C m., :.gX# o b T B M n hXY.. iXVXVXKX1X9.9.w.O.9.p.%.D.K.K.j.f e i 9 9 ",
"@ % & g Q 3.-.<X7XiX6.).~.K K ) _ l..XkXjXkXxXcXvXcXAX'.v S.H :.*.q O b Y N v Y DXY.  7XBXVXVX>X~.~.~.+.0.0.3.).[.[.) 5 r i i 9 ",
"* $ & h h X.#.Y.gX8X4X).D.<./ h.h.k.^.jXkXkXcXvXAXZXAXaXT K.W ^ a.1 O Y M M B d.hX$.# x iXFXVXpX~.~.~.+.~.=.;.5.|.H.( 1 & i w y ",
"* @ e r t 3 ~ ! %.`.'.5X'.U.J.J.l.l.|.+XcXcXvXZXSXAXAXzXE B.E C 2 o < Y M M c m.aX2.= % >XzX~.~.:X~.~.=.~.~.=.'..X^.( 1 r y ` w ",
"# @ a a e r -.f ~ '.).`.]._.J.}.l.{.XXXXcXcXZXAXSXSXGXxXN.W.T C > o b M n M c R.DXI.= 4 7XpXiXtX;X;X~.3.~.~.~.zXnX[.<.4 ` ` y ' ",
"* = e h t r -.d f )._.}.].G.K. Xl.[.[.+XkXvXAXSXGXGXSXAXQ.f.s.M - - H Y n m c E.HX5.. * pXCXVXpX~.tX~.1X;X~.~.zX'._.<.1.q.7.q.7.",
"X # g g $ e 3.4 V ).F.}. XZ.j.{.OXOX[.XXcXbXAXGXGXGXGXSXQ.d.g.N ; m n H n ; ; 5XDX2.+ 4 <XGXzXiX<X1X=X~.pX;.3.VX).6.%.Q X. .O.w.",
"X * a r a g #.5 V _.j.C.|.[.l.{.|.oX|.+XcXbXAXSXHXGXGXGXB.f.g.g.M n n n b : c T.CX5.. 4 7XCXzX7X~.;X~.Q Q ;.~ KX6.~ f a Q p [ ` ",
"= = h h ..#.%.U ( ( j.^.jX{.l.|.[.oXXX+XcXbXAXGXGXHXHXGXK.f.d.g.N M n b ; - : ^ DX1.  4 7XVXzX7X~.~.3.a a @ ~.zX6.Q s Q p ` [ [ ",
"= * l =.-.0./.).).) ) ^.+X[.[.[.[.+X+X+XcXbXAXGXGXHXGXGX].s.d.g.M m b b - o - G DX,.. 4 iXCXzX7X~.! a X.g 3 3 p.3.Q Q 3 w y ` [ ",
"+ & r #.X.Q %.D._.G.h.l.XX[.|.+X+X+XXXkXkXbXAXSXHXHXHXSXn.M s.g.M n < ; ; 2 H :.HX4.. 4 iXVXzX8XiX%.Q Q x g & $ =.] p y w y y ` ",
"+ * Q -.X.e.r.6._._ h.^.[.l.[.oXkX+X+XkXkXbXAXGXHXHXHXgX> M s.g.n b > - ; A A G gX4.. 5 zXxXVXiXKX~.Q Q g j r k 7.+. . .i ` ` 9 ",
"* * 0.u.Q >X(.6.^.j.k.^.[.^.l.l.oXoXXX+XkXbXbXSXGXHXDXr.- C T B n - 2 | L.L.| { f 4 = 5 zXCXFXiX7X3.Q X.x g g ' q.7.@.@. . .[ ` ",
"h % 0.i.X.2X(.D.j.( XXXX^.l.[.[.oXoXoXoXkXcXbXAXGXGXiX! ! C Z n ; P R.r.P P < O .   X f CXCXzX7X2X=.Q Q l g i [ q.$X$X9.$X9.@.@.",
"7 % *.p.&.1X<X4X<./ ZXvX].J.lXvXXX|.oXoXkXvXvXbXSXVXA.! gX> n ; P a.{ d G 0 1 X . +   f DXCX8XiX7X#.X.X.k j t ..9.o.` ` u ` ` @.",
"$ e ;.#.] #X,X4X4X>.DXSXvXnXxXZXkX+XoXXXcXcXcXnXxXsXK `.HX^ - G U $.y.i.%Xy.x #   .   f HXhX8X4X(.;.X.+. .k p ] 9.o.@.[ u u w y ",
"6 s } =.9.3X8.4.I.6.GXZXZXnXCXAXlXXX|.XXjXkXbXkXE.R.C gXGXCXR.P G r.y.y.,XtXy.e +     + gXgX6XiX~.~ ;.=.p p ` 7.9.@.q.[ u u u y ",
"% s 8 r q.@Xi.>XI.6.zXxXvXgXZXZXnXnXkX.X|.+XcX'.h.U.I.<.gXHX5Xd L r.1.#X3X>X3Xy.. . . . U %XT.8X<XQ =.+.p ' u $X9.@.9.+.[ u u u ",
"+ s d s ] @X*.1.5XF.U.sX'.'.ZXCXnXlXxXdX|.XXnXj.5XhXU.V 4XDX{ G *.u.y.e.} } e.e.x o . o 2 2.+ 1.7X3.:X:Xp  . .@X@.O.+.[ [ u i i ",
"5 d I 3 7.9X*.d ! D.C.].C.j.xXCXxXdXvXdX|..Xj.).U.R 5 + r.zXU J 1.e.i.p.&.z z $.f o . + 2 ! 2 o #.-.NXHX+.p +.$X9.9.+.[ ` u u ` ",
"J d f 4 u.BX3.f ! K K ) j.^.sXxXsX XvX.X|.oXh.`.5XA.:.U ~ ,XU L y.>X#Xp.-.z z I s O . . 2 0 , = 1 I 0XJX .'  .w.-X:X@Xw.@. .u w ",
"d f s s #XVXp.: K ! R ) Z Z.E.dXdX}.dXjX|.^.j.`.sX8XT.G ! 5.I J %X3X0X>X1.z x x 2 +   + 2 2 , # + #.3X9.O.O.p w.9.[ o.O.7.7.O.[ ",
"8 a 8 x &.%X*.s #.J J K Z j._ h.H. XoXOXoXl.h.`.5Xd , O 1.,.U L %X3XtX3Xi.} x d , + . . , q # * , *.%Xq.O.o.[ 9.+.` ` [ ' 9 g o.",
"` ] g r i ' ] ] ~ I J K C C._ h.h.H.OX{.OXh.( `.8X:.{ , (.R J L y.3XtX2X>X-.f d 1 = . . , , 1 * , { 8.7.O.[ [ w.@.y t ' g 6 6 ` ",
"8 ` ' ' #.j z *.*.I ! ^ ) C._ h.h.{.{.l.!._ C.4X(.8X:.A 6XS H L a.%XtX2X0Xy.} d 1 +   . + + 1 * 0 } x } ' ` 7.$X+.9 y O.` @ 6 ` ",
"% % % g } } *.8.1.4.! H ( H.h.l.l.l.{.l.z.d.b.$.,.:., > P.m S A } %X%X%X7Xi.$.I 1 =   . O O * = 0 { ] =.' w 9.$Xo.` ` O.u @ @ ` ",
"e $ 8 g 8 } =Xe./.,XA.^ ( G.k.j.k.H.}.{.z.h.W / V > - H P.x.x.A 0 *.p.>X2Xi.*.z q * . . , + 1 + 0 2.6 [ =. .9.w.+.` [ ] y @ 9 [ ",
"* = X 8 a e.yX] z r.8X'.F.( ) _ Z.K.{.Z.f.f.m b.R O S._.x.L.&XS q } 1.i.<Xi.$.z 1 + .   2 2 + + A { + ' O. .w.;X$Xq.@.[ i 6 9 u ",
"4 s % 8 ] @XqX] x %.T.5.`._.F.( K.}.G./ f.V.Y b ; Z  XN.Y | &XP , s $.t.=Xy.;.x * * + . 0 0 + O A L # j  .` 9.$Xw.7.9.7.o.` u 9 ",
"#.* @ 8 ] 9X2X' x %.r.! I.6.^ <.J.aXZ.R V.c.h.c ; b.Q.Y c | *X| , 1 l 3.r.e.%.x s 1 # . G G O , 0 L q x  . .9.@X:X@.o.] ] [ ] g ",
"= z s & j mXBXj s e.1.$.(.,.! K 6._.C.) v.d.W c v Z.R > < { *XL.2 4 Q -.e.r.*.#.X.~ s . A A o * A } # ] 0Xo.u.-X:X7.7.] ] ' i ' ",
"& h 0.& $ tX2Xx x >XY.%.(.,.,.( A._.A.R >.Y n ; b.aX^ 5 } } &X&X0 s Q *.4.a.1.*.#.l q o L < . = 0 L q q i.0.u.;X-X7.q.&.[ u k 9 ",
"& & z g r e.#.r #.%X/.5.4X(.(.D.D.F.A.V R R ; b '.].5 O x L | L.0 d } &.y.y.e.*.*.x # + A < . X L L O x ;.7.~.rX1X7.q.=...i u w ",
"& e % s z ] X.] ] -.e.r.(.8X/.I.U.U.m.n C J o G aXaX: 4 s } P %X{ 0 } e.a.*.*.-.&.q # X A ,   X 0 { , { l 9.:X;X;X7.7.7.&.' $ $ ",
"% = l a r a h -.#.-.t.1.t.(.I.6.T.aXx.n > : o ^ `.J.- 1 4 f { 2.2.0 *.y.*.8.e.&.} # o + d O   X 0 , < { @ q.rX;X#X7.7.&.o.] ` 6 ",
"e % ] -.r e 7 a #.-.y.i.Y.r.(.I.aXaXc.s.v V - 5.`.n.: O d L , < | x 1.e.e.y.2.P P - O O 5 o . . 0 q A | # 7.~.9.-X@X7.@.[ ' u 6 ",
"% & * #.a &.-.a 8 a z %.I.~ t.r.5.R.f.g.N R > U.`.<.- 0 1 0 G G P G *.r.r.>.D x.x.n ; O 1 o . o q 0 P P X 8.@XO.9.9.o.] ] g t 9 ",
"e & & @ r 0.=.e r h * ~ -.U ~ $.6.R.g.f.B v > D.S.c V >.:.I d 0 A S $.a.2.x.P.M.W.s.b - : . . . q - | P X 7.w.q.$X7.7.] ` ' g 9 ",
"& & & $ g a 7 s 8 a 8 $.-.$.~ 1.r.A.g.g.B - : F.E F E m.P s d d L P :.W v.Q.B.B.B.s.m 2 - . = X q 0 | S X 3.~.w.-X@X@Xo.a % i y ",
"h e e & & r i j g z x -.1.4.1.t.Y.n.s.d.m - > A.Y s.x.x.P f I d < E S L.P.M.N.N.P.d.b ; O . X . q q L.S . =.w.u.$X1X9X=.i 6 6 @ ",
"a s a e $ 7 i j g h x 8.p.e.1.,XR.>.s.g.c - c b.M T c.c.! x I { ; W T x.V.P.R.E.S.n.G < + X . X 0 L 2.A + 8.u.w.7.3X9X7.i 8 6 @ ",
"$ e g 7 $ r j g i l i e.-.*.I T.2.E D N c ; > E d.s.c.v.H I :.P A b x.c.L.E.E.n.H A ; - o .   . q P | 0 X y.qXq.0.q.q.o.i w 9 @ ",
"s $ 3 l t 6 j &.] } &.0.1.*.e.r.2.d.T D m - ; Y d.g.c.V.G I { U O ; x.d.x.| T d.c.W b O + .   . 0 < } , . i.qX9X=Xq.=.k 8 8 6 @ ",
"& X a l & r =.o.=.7.@Xy.3Xy.,Xr.m.E T F ; - ; v B s.W.V.< , A G I A S T m E Q.&X!.d.S - O . o o q q { , . %XuXp.0.u.9.' g 6 6 6 ",
"e & r h $ 6 j u ` &.&.8.e.-.#.$.n.W s.F ; - - c B d.M.d.< $.Y.L $.q 2 H v Q.Q.Q.!.f.s.m - . .   } L L # . y.uXp.X.&.=.] ' 8 6 % ",
"& 3 $ $ 7 7 i g g j ] &.#.] } :.2.W T M < + - ; Z V.h.Z 2.y.R.2 z a = G Z Q.Q.K.W.f.s.v - : , X d 0 d # . i.tXi.=.k ' X.] ' ` $ "
};
