/* XPM */
static char *_2f2136ee6164199f1e983d0ae077f6bE1phc9Jmxy9GnU3b[] = {
/* columns rows colors chars-per-pixel */
"64 64 246 2 ",
"   c #030202",
".  c #0B0102",
"X  c #03040B",
"o  c #0B040B",
"O  c #04090D",
"+  c #0B0B0C",
"@  c #120204",
"#  c #18070B",
"$  c #040B13",
"%  c #0B0C14",
"&  c #060814",
"*  c #1C0C14",
"=  c #140C13",
"-  c #0C1319",
";  c #13141C",
":  c #1B141C",
">  c #15151A",
",  c #24070D",
"<  c #240C13",
"1  c #2B0C14",
"2  c #290916",
"3  c #340C16",
"4  c #2D131A",
"5  c #26141A",
"6  c #36151D",
"7  c #131621",
"8  c #151B23",
"9  c #1A1B24",
"0  c #191C28",
"q  c #231C25",
"w  c #2B1B24",
"e  c #281A26",
"r  c #371A26",
"t  c #1B232C",
"y  c #1A2329",
"u  c #1C2A33",
"i  c #1C3137",
"p  c #23232D",
"a  c #27252C",
"s  c #37232A",
"d  c #232531",
"f  c #242C34",
"g  c #2A2B35",
"h  c #2C2D3A",
"j  c #292734",
"k  c #3C2C3C",
"l  c #372B35",
"z  c #2C333B",
"x  c #283339",
"c  c #32343D",
"v  c #38373C",
"b  c #430F1E",
"n  c #471A27",
"m  c #531D2B",
"M  c #43232C",
"N  c #4B222C",
"B  c #46252B",
"V  c #54222E",
"C  c #472835",
"Z  c #572937",
"A  c #47333A",
"S  c #56323D",
"D  c #632A3A",
"F  c #6B313C",
"G  c #2B3742",
"H  c #333642",
"J  c #343B43",
"K  c #3A3B47",
"L  c #3E2F41",
"P  c #463A46",
"I  c #583846",
"U  c #4B2E41",
"Y  c #6B3A4A",
"T  c #663645",
"R  c #763848",
"E  c #68364A",
"W  c #3C434B",
"Q  c #394449",
"!  c #3B4852",
"~  c #3B4E55",
"^  c #43444C",
"/  c #47474E",
"(  c #454C54",
")  c #484A56",
"_  c #564955",
"`  c #45535A",
"'  c #4C535D",
"]  c #485155",
"[  c #54565C",
"{  c #58454C",
"}  c #6A4655",
"|  c #774858",
" . c #68545A",
".. c #6D444F",
"X. c #4A5A63",
"o. c #535B63",
"O. c #585964",
"+. c #6A5965",
"@. c #7B5666",
"#. c #7D4E60",
"$. c #59646B",
"%. c #5A6B73",
"&. c #5C7277",
"*. c #4E646A",
"=. c #65646D",
"-. c #77626B",
";. c #666B75",
":. c #786A77",
">. c #67737A",
",. c #73727D",
"<. c #74787D",
"1. c #833C4E",
"2. c #833C50",
"3. c #874557",
"4. c #894C58",
"5. c #8B586A",
"6. c #945569",
"7. c #A35B68",
"8. c #8A6876",
"9. c #986777",
"0. c #86737C",
"q. c #8C6A70",
"w. c #A66777",
"e. c #72827F",
"r. c #5B7A84",
"t. c #6D7C84",
"y. c #677984",
"u. c #737C84",
"i. c #797C87",
"p. c #867985",
"a. c #967986",
"s. c #986D80",
"d. c #B77A89",
"f. c #AC7586",
"g. c #C37E90",
"h. c #69848B",
"j. c #7A848C",
"k. c #77868B",
"l. c #6C8A94",
"z. c #6F8791",
"x. c #778B94",
"c. c #78939A",
"v. c #6D9096",
"b. c #789AA7",
"n. c #6D97A3",
"m. c #7CA2AC",
"M. c #7EA4B1",
"N. c #85868E",
"B. c #858C96",
"V. c #968A97",
"C. c #83929B",
"Z. c #889599",
"A. c #93989E",
"S. c #9A8489",
"D. c #AA8A94",
"F. c #879AA4",
"G. c #989AA5",
"H. c #B49CA4",
"J. c #83A3AC",
"K. c #8AA3A7",
"L. c #94A2AB",
"P. c #97A7AA",
"I. c #86A6B3",
"U. c #94ACB2",
"Y. c #9BACB3",
"T. c #9BA4B3",
"R. c #9CB5BC",
"E. c #9DB9BF",
"W. c #97B3B8",
"Q. c #8CB3BA",
"!. c #B5A4AB",
"~. c #A6ABB5",
"^. c #A3B5BC",
"/. c #A3B9BE",
"(. c #AAB5B9",
"). c #B4B8BD",
"_. c #AFA9B0",
"`. c #90A59E",
"'. c #C78697",
"]. c #C496A5",
"[. c #DA93A5",
"{. c #C5ADB7",
"}. c #E6AEBB",
"|. c #9CBBC2",
" X c #9AB7C4",
".X c #A3BCC3",
"XX c #ABBDC4",
"oX c #A8BBC8",
"OX c #B3BCC3",
"+X c #B6BBC6",
"@X c #C9BAC5",
"#X c #D9B5C1",
"$X c #A4C2C5",
"%X c #ADC1C6",
"&X c #A4C2CA",
"*X c #ACC4CA",
"=X c #ADC9CD",
"-X c #B2C2C6",
";X c #B2C5CA",
":X c #BBC4CC",
">X c #B4C9CD",
",X c #BACBCD",
"<X c #BBC5C5",
"1X c #A9C9D2",
"2X c #B5CBD1",
"3X c #BBCDD3",
"4X c #B8C7D3",
"5X c #BDD1D5",
"6X c #BED2D9",
"7X c #BED9D6",
"8X c #B6D1D0",
"9X c #9FC3C3",
"0X c #C4C7CC",
"qX c #C2CDD3",
"wX c #C8CCD5",
"eX c #C3D2D5",
"rX c #C3D4DA",
"tX c #CAD5DA",
"yX c #C6D9DD",
"uX c #CBDADC",
"iX c #C9D6D6",
"pX c #D2DADD",
"aX c #D5D3D9",
"sX c #D7C8CC",
"dX c #E3D2D9",
"fX c #CBDCE3",
"gX c #C6D9E2",
"hX c #D3DDE1",
"jX c #D9D9E2",
"kX c #CDE2E7",
"lX c #D5E2E3",
"zX c #DAE3E5",
"xX c #D3E3EA",
"cX c #DBE5EA",
"vX c #DBE9EC",
"bX c #D5EAED",
"nX c #DAEAF2",
"mX c #DDF0F6",
"MX c #E5EBEE",
"NX c #E5E4E8",
"BX c #E3ECF2",
"VX c #E9EEF2",
"CX c #E8F3F9",
"ZX c #F4FBFE",
"AX c #F4E3F5",
"SX c #D8DADF",
/* pixels */
"eX,X,X;X-X-XXXXX%XXXoXXX/.^.R.R.Y..X%X;XrXtXhXiX<X(.sXdX@XD.a.s.s.s.p.{.wX4X+X6XrXrXyXyXkXkXzXzXcXxXlXxXhXfXyXrX6X6X6X7XgXfXyXyX",
"eX3X,X,X,X;X;X-X;X%X%XoX.X/..X^.R..XoX%XqXfXjXtX0XsXNX!.8.s.s.s.5.5.#.+.G.@X@X4X4X3XeXyXyXuXhXhXlXlXhXfXgXyXrX6X6X6X6X6XrXyXyXyX",
"3X3X3XqX5X5X4X,X;X;XoXOXXXoXXX.X%X/.XX%X4XtXhXpX0X!.D.q.8.f.9.6.5.| E E _ p.+X+XOX;X3XtXuXuXuXuXuXtXtXrXrXrX6XrX6X6X6X6X5XrXyXfX",
";X,X,X3XeX5X3X3X;X;X;X;XOX*XOX+X;X%XXX/.;XtXtXjX!.@.-.9.5.6.7.6.R | | E U I p.wXXX-X4XwXtXiXtXtXiXiXrXiXrXeXrX6X3X3X3X3X5X7X6XrX",
"-X%X-X>X3X4X;X;X;X-X-X-X;X>X4X,X,XeX%XY.%XrXaXjXS.{ q.5.5.4.3.2.Y R Y D E I I @X%X=X,XwXwXwX4X3X3XeXeXeXeXrXrX3X2X6X4X6X6X6X3X5X",
"XXXX.X%X-X;X;X%X-X-X-X;X3XqXeXiXiXpX-XP./.-XiXwX,.{ @.@.4.2.3.R F S F I U E U ~.*X=X;X4X4X+X+X*X,X,XeXiXrXuXyX5X6X4X6X6X6X6X3X2X",
"/.^./.XXXX%X-XOX-X;X<X,XeXtXhXlXlXlXeXP.P./.wX~.,.+.I T @...R F D Y C U C e U p.;X=X*X>X:XoX%X>X,XeXeXrXuXfXfXuX6X6X6X6X6X6X3X3X",
"/.^.^..XXX%X-X%X-X;X;X,XiXlXzXcXMXSXeXY.P.P.0XB.i.,.=.P U | R R T A k l e e L +.:X=X=X>X4X;X2X8X5XeXtXuXfXxXxXgX6X6X6X6X6X6X4X6X",
".XoXXXXX*X-X-X;X-XOX,XiXuXlXzXvXvXlXpX<X~.~.+Xi.C.N.<.{ P ..F F T S g g f j k _ +X>X>X>X>X8X6X6XyXyXyXgXfXxXkXkXgX4X6X3X3X6X6X6X",
"oX1X;X*X;X>X;X;XXXOX,XuXpXhXzXlXzXpXpXiX<X<X+X:.L.L.>.P A T R R E U h f i j l U ~.qX5X5X5X7X7XyXrXrXyXrXgXfXfXfX6X6X6X3X6X6X6XoX",
"oX=X=X;X>X>X;X;XXX%X,XiXuXpXpXlXlXuXzXNXpXpX@X+.+X~.>.P A S 1.1.T k g f f G L U G.wXqXeXrX5X6X6X7X6X6X5X6X6XrX6XrXrX6X2X6XgX1Xh.",
".X%X*X=X2X;X%X%X-X-X<XeXiXiXuXhXfXgXlXzXzXNX@X+.+X~.N.P v T 2.2.I A g f x G L L V.wX0XqX5X4X5X4X3X2X2X2X>X>X3X5XgXrXgX2XgXxXF.r.",
".X.XoX%X%X%X%X*X-X;X;X;X,X,XiXiXgXyXpXpXhXVX@X+.+XOXG._ s S 1.2.I L g h f c L L i.0X+X+X;XoX;X2X=X=X1X=X%X=X;X2X5X5X5XkXoXF.K.*.",
".X.X|.|..X.XoX>X,X5X5X,X,X-X;X,X6XeXqXtXpXVX_.+.:X(.G._ k U 6.R U j g z h v P L u.@X~. X|..XoX&X=X&X*XoX%X*X=X4X>XfX/.%XX.~ W.z.",
".X.X^.R.R.^.%X2XeXyXrX5X<X%X(.%X-X;X<XiXuXlX!.0.~.G 0 d L l | R P j f h f v P L y.+X XW.Q.Q. XoX&X&X.X&X&X*X2X2X>X5X/.X.*.! c.^.",
".X.X.X|.|.|.%X8XyXkXuX7X>XXX^.(.^.XX%X8X8XuXT.V.=.X & X % k | E A 8 - - - c P L :.+X XW.Q. X X X&X&X|.&X*X=X=X2XfXbX/.U./.x.>.U.",
"&X&X|.|.1X&X.X=X7XgXuX5X%X.X/.(.^.U.9X$X%X,X~.V.L & j 0 X = R E ; & & & & j ) L ,.4XW.R. X X XoX1X X1X1X*X;X3X6XCXCXgXVX;X>.*.x.",
"|.9X|.|.&X1X&X=X>X8X3X>XXXXXXX%X.X^.W.W./.,X~.t.% O.wXY.d = T r X & ' ) & j O.L i.:X.XW. X X X X X1X1X1X2X3X2X8XCXCXCXCXC.` ! h.",
"|.|.R.R. X.X|.|.$X%X=X%XoXXX%X=X4XOX%X&XXXXX~.V._ ~.fXxXu.j 4.N o u.wXgXO.7 ) H N.:X*XW.M. XM.m.I.M.M.&X6XfX7X8XfXfXnXB.` ! G &.",
"R.W.R. X X|. XR.R././..XXX$X$X&X3X4X2X.XXX+X+XB.d O.~.B.=.-.f.S : =.+X4XO.7 0 t G.gX=XI.m.M.m.n.n.h.l. X6XbX2XK.x.j.G.y.! *.x k.",
"%X.XR.R.|.|. XW.W.W.W.R.|.|.|..XXX3X>X&X6Xt.K V.d 7 t f ;.a.f.T C 0 K K u 8 & u ;.+XgXI.b.b.b.b.l.r.v.K.5XmXQ.&.) y.r.%.~ J ! .X",
"xX5XoXR..X.X.X|./././.9X/.E.|.|.%X.X=X&X2X%.& P P ; u O.a.d.f.T r L 0 d G y $ u & >.rXz.n.b.n.M.l.l.c.b.6XkXv.*.y.y.%.*.W h G.(.",
"CXxX3XoX%X%X%X=X>X8X5X5X>X$X|.R..X.X$X9X2Xx.7 0 [ ; % k @.d.7.R C k j h u $ - u $ i.fXz.n.b.n.M.b.h.v.b.gX=Xy.h.y.y.! K d K _._.",
"CXvXyX*X%X>X4X6XyXhXbXbXrX=XoXoXoXoX$X9X1Xc.7 ; h ; t j E D.w.D C * * 7 7 $ $ 0 & C.fXz.r.b.n.b.l.y.l.J.6X|.h.h.%.$.O.! q P !.D.",
"BXBXuX>X%X;X,XeXpXzXvXMXcXhXqXOX%X*X$X&X=X&.f % j 9 % q 6 9.3.D Z e o 9 0 X - 7 X F.fXz.l.m.n.M.c.r.c.J.7X=X*.*.r.' ^ / =  .!.S.",
"vXvXiX<X-X,XeXiXpXhXcXMXBXNXhXgXrX3X.X=X>X%.t 9 j h % P 6 T V n C r o ; 0 & - 7 ; ~.fXx.z.J.b.I.b.r.l.F.8X9X&.e.i.B.$.^ < -.].].",
"lXpXeX,X,XqXtXhXaXpXzXMXVXMXMXnXVXcX8X;XrXP.J : 9 z $ v * 6 N 1 r s & = 9 & - 8 h eXfXc.z.M.b.M.b.h.l.b.&XK.`.c.~.VX:Xv , q.H.D.",
"iXeXeX8XqXrXhXhXpXaXzXMXVXMXMXVXVXhXiXeX5X<X] v 0 ( $ p a * 1 , r e o % 7 X - 8 c zXkXc.l.b.n.m.n.r.c.K.K.R.`.k.O.T.A.v 4 q.S.a.",
"iX,XqXeXqXrXtXtXiXaXpXNXMXzXzXNXVXhXpXpXiXpX>.x 8 z X t a + @ # s :   O ; $ ; % J xXkXc.z.b.b.I.b.l.F.L.Y.K.Z.$.`.lX>.t 5 -.S.0.",
"eXeX3XrX6XrXrXqXeXeXiXpXpXiXiXiXhXjXiXiXaXcXN.y t ) 9 9 f + + @ a > X % 7 % e 0 [ bXfXc.v.m.J.I.J.l.c.W.Y.<XY.Y.~.).k.x w -.S.D.",
"eXeXeX3X3X6X3X3X,X,XeXeX,X<X>X5XtXeXqXhXuXlX~.&.' G.) j $.y @ @ = ; X & 7 % j g <.nXkXb.l.I.b.b.b.x.C.+X-X8X/.e.B.k.%.Q = :.VXD.",
",X5X3X>X3X6X3X3X5X,X<X,X,X8X8XeXeX7XiXiXiXMX(.j.=.V.c $.N.x # # + ; X X 7 & d j k.bXbXm.h.m.b.m.c.l.F.OXP.uXvX`.P.k.~ ` h _.jXG.",
",X8XeX8X>X>X,X3X>X8X,X,XeX8X,XeX7XiXiXiXtXxXhXG.,.N.x F.] Q : . O - $ O f t p d j.nXbXK.l.m.b.M.M.y.Y.^.`.8X`.e.>.$.%.Q y.L.x.G.",
"8X,X7X,X,X=X=X*X,X%X>X5X>X5XyXrX7XeXeXjXiXfXVXG.i.~.L.$.J v q     - + - f j d K $.BXxXc.v.Q.m.M.b.&.U./.&.Z.e.;.%.X.t.W %.xXoXF.",
"-X>X8X>X-X-X;X*X;X;X;X;X;X,X6XgXuXuXaXaXNXMXjX~.V.G.,.^ f ^ y +   - > $ p H p j X.cXnXF.v.m.b.M.J.v.U.C.-X8X>.<.] W [ ~ i.W.l.I.",
"-X,X-X=X-X=X;X4X>X,X;X;XeXeXwXtXpXiXjX@XH._.G.T.B.:.K ^ y c f O O 8 a   7 G H f ) rXmXF.c.m.I.I.b.h.P.=XMXeX[ [ Q g J u X.X.` X.",
"=X=X-X;X1XoX4X3X,XrXnXCXxXgX+X~.).wXS.@.| _ p.T.p.K K G a c c $   ; v 0 0 d H d G 4XnXG.b.I.M.M.c.z.U.,XzXBXlXe.! Q x y K gXT.B.",
">X=X=X>X2X2X3XqXbXCXZXrXF.i.B.F.k.j.p.s.} I V.i.K P X.K p ] ` $   O h K H H d d h wXCX Xp.T.b.I.x.x.U.%XvXvXZXlXA.( x - %.F.$.,.",
"=X=X=X>X4X4XwXfXCXfXY.x.y.O.X.X.N.+Xi.-.D.| _ H [ ) K p f J ` - X   % j G u 0 u d oXjXoXoX4X4XoXL.T.L.(.%X<X8XCXP.e.] ; / v p p ",
"=X=X=X>XoX4XgXnX XC.j.i.*.K K K f =.N._ } D.O.,._ L d h a ^ ] a     X & d 8 7 8 d F.i.y.gX4XI.y.y.Y.Y.x.x.Z.Z.(.-X).k.^ Q K p g ",
">X=X=X8X*X6X6Xb.y.y.i.y.P K G G f 8 ( ;.C I :.=.v c _ { l v v j   X % O 8 t y - i t.t.X.i.i.r.u i ~ *.x.x.A.eXaXVXNX+XN.;.[ ^ Q ",
"9XW.U.E./.7Xx.y.y.y.y.O.H G d d f u y v { l S l A { v j : l r A =   + O - 8 ; - i o.%.X.r.y.) G Q x f k.)._.zXVXZXZXMXiXP.[ Q Q ",
"K.K.K.b.^. Xy.t.y.y.y.X.G K u u G y y - l S { , l l q + s 4 Z T *   % + % > 8 & t ' $.X.! ' G h G i u ~ eX0XiXZXVXzX0XZXMX<X`.`.",
"m.K.K.K.;XF.u.y.%.%.O.X.H H t G ! f - - s A #.r w * q v A M T I <   + = = 9 > % d ' O.! G G G h f u x c `.<X,XeX,XL.OX(.CXVXZXVX",
"W.W.U..X;XF.t.N.T.B.) K K x 7 H K l 0 % + k @.6 * a { s * r n U 4 . + = : = = 9 H ) ) K d t G G t 0 j ) N.%X-X`.L.k.F.P.(.0XpXZX",
"U.U.K.3X+Xx.B.T.+X~.=.H G 0 0 g K d 0 = % a B r * P  ._ +.Y b Z 4 . @ + * * * j K H ) ! t 0 G G 0 7 H ' k.(.K.k.c.h.j.L.L.P.).aX",
">.&.u.gXoXj.B.>.' ;.;.K t & 7 j G d 0 9 & * S r v ~.T.S.+.I n M < . * # # 5 a j L P K ' h 0 G d 0 & K K [ k.>.` o.>.k.x.c.C.(.U.",
"` Q F.BXZ.i.O.G f f P [ c & & d G 0 9 X = e C I {.).Z.;.O.U I C < . 4 s < 4 s l j ' L ) K & K t & u K t ] / Q z z / $.k.k.Z.P.G.",
"*.%.,XuXZ.;.K z p 9 q [ [ % % y a q 8 O - s N | } I [ =.( K k A # . # r r n C k d ^ K o.K & z 7 7 P d 0 ^ ] v v x Q ] $.o.$.Z.e.",
"/.eXMX:Xi.o.z h 9 9 a l _ c O u y = > y o [ C n T | v A W v h j o . # # 2 n C l K W ! ) K : 9 X d G 7 j c $.v ^ v v v v Q x ] x ",
"W.lXzX(.i.] z z 9 p q : : K ; y y p > > q { 6 ].9.q.s w a h h 9 > . . 2 M r l A H H L P U 9 % & G u 7 f a ;.<.=.[ ] ^ x x v [ ] ",
"(.iXiXP.,.] Q f z y > > O c g $ - O y > l 0.}.q.| 4.Z 6 4 j 9 y     o * r l l c K K j U U r   O 7 u 0 0 x [ <.j.e.<. .] Q Q [ e.",
"`.<X0XZ.=.[ ` K x u p y y y 9 O O O : > +.dXD.n 4.F D n @ 4 p -   .   . = a a f J / C U Y A o O 8 u y u x t.$.' ] $.>.$.$.$.[ ] ",
"`.(.P.<.=.[ ! ! ~ ` ^ z : =   o X X o { #XS.B S Z Z D V 3 @ > -       .   - 8 x z a C Y #.S   = 7 8 t x z Z.B.! ] [ $.[ ] [ v > ",
"e.P.`.<.[ O.;.j.h.&.] x 9 > o     . ^ _.0.4 w A Z N m D b # =             % ; 0 p e C V Y | s   ; p p H ' F.:X~.Z.k.>.x.`.eXe.+ ",
"e.`.A.=.+.C.Y.L.k.o.^ a l . o   *  .{.S.s S.D.A B N b m N , . +           X % = * r n n n .. .A e e w l [ (.CXxXfXfXrXuX(.-Xe.y ",
"oX+Xp.i.T.T.L.B.>.=.k A { < @ .  .{.{.C :.sXdX!.B n n m B # < +     .       . . w r n n 3 r .. .E s s e q [ OXR.K.K.K.U.&.k.>.u ",
"fXxX XoX+XT.C.i.,.{ I U 6 S s } q.].q.# -.dXsXsX..3 B B , 1 6 # + . . .   . # < , 3 r n S n 6 S #.Y I r w 9 ;.-XU.F.U.U.c.P.>.x ",
"xXnX4XoXT.F.:.=.{ M I V F ..D.].w.9.6 M : _.aX{.{ 4 B b 6 B 6 1 # @ @ + . . # 4 6 6 6 < 5 s 6 n U #.8.} A w : A.vX<XkXvXyXkXZ.i ",
"xXnXjX Xp.p.i.-.I 5.R '.w.d.}.w.5.n n A 4 s  . .6 4 6 6 V B 3 1 , # # , @ . . , 1 , 4 6 4 M C n 3 E T 5.0.}  ./ wXCXVXmXCXZXK.i ",
"4XoXT.p.0.s.H.a.3.'.7.[.3.g.'.6.N N B n 5 5 5 # 5 < 6 B V n n 3 , , , , # . . @ 6 4 < 4 r 2 6 n Z b Z I { ..I I p.0XaXpX6XlXz.u ",
"p.p.p.{.]...d.Y 7.7.7.d.1.'.d.D n Z B B B B s < 1 1 B S m m m b 3 , , 1 * .     . 4 4 6 M C I E U E r m Z Z S C C } p.A.x.C.*.i ",
"+.a.s.5.3.3.7.1.g.3.7.1.7.'.V b N B N C B s 1 5 1 6 B V V D m n 6 3 1 1 < +     . # < 2 2 2 3 3 3 4 C 3 N Z V V N C P P ] ~ Q i ",
"+.{.Y T 4.4.7.F 7.F 7.1.d.F b V B B C S B 6 4 , 4 B V V D V V V 6 b 1 4 5 +       . < , 2 6 3 6 4 4 r C 3 n Z Z Z Z r P ) G ~ G "
};
