/* XPM */
static char *empty_resized[] = {
/* columns rows colors chars-per-pixel */
"64 64 76 1 ",
"  c #040404",
". c #080706",
"X c #090807",
"o c #0C0B0A",
"O c #100F0E",
"+ c #12100F",
"@ c #141312",
"# c #191614",
"$ c #1A1816",
"% c #1E1C1A",
"& c #211E1D",
"* c #23211E",
"= c #252221",
"- c #292624",
"; c #2D2927",
": c #2D2B2A",
"> c #322E2B",
", c #34312E",
"< c #353231",
"1 c #3A3633",
"2 c #3C3936",
"3 c #3F3C39",
"4 c #423D3A",
"5 c #45413E",
"6 c #474341",
"7 c #4B4643",
"8 c #4D4946",
"9 c #4E4B49",
"0 c #524E4B",
"q c #56524F",
"w c #595552",
"e c #5D5A56",
"r c #5C5A58",
"t c #615D59",
"y c #66615D",
"u c #666360",
"i c #6A6561",
"p c #6E6966",
"a c #726E6A",
"s c #76726D",
"d c #757270",
"f c #797571",
"g c #7E7A76",
"h c #807D77",
"j c #827D7A",
"k c #85827C",
"l c #88857F",
"z c #848281",
"x c #8C8782",
"c c #8E8A85",
"v c #8E8B89",
"b c #908A85",
"n c #938E89",
"m c #96918C",
"M c #99938E",
"N c #A39C97",
"B c #A59E99",
"V c #AAA39E",
"C c #ADA6A0",
"Z c #AFAAA5",
"A c #B3ABA5",
"S c #B7B1AB",
"D c #BAB4AE",
"F c #BDB6B1",
"G c #BEBAB5",
"H c #C2BBB5",
"J c #C5BFBA",
"K c #CAC3BD",
"L c #CDC6C1",
"P c #CFC8C3",
"I c #D2CBC6",
"U c #D4CEC9",
"Y c #D5D0CB",
"T c #DBD3CD",
"R c #DED7D1",
"E c #E0DAD4",
/* pixels */
"                                                                ",
"                                                                ",
"                                                                ",
"                                                                ",
"                                                                ",
"                                                                ",
"                                                                ",
"                                                                ",
"                                                                ",
"                                                                ",
"                                .               .               ",
"                         .  .X  . .                             ",
"                          .                                     ",
"                         . .8c#0q                               ",
"                          %MHL=zRm* .                           ",
"                          gRDL=gUKSX                            ",
"                       . 7=DYU=gPLt-#                           ",
"                        =Ra:IL-gRj@Gq X                         ",
"                      . rPI2qR=vKOMKc                           ",
"                        nHDS$v<f-dKHS#                          ",
"                       +CPKYN==ouRJLL2                          ",
"                        =<338O .rruuf:                          ",
"                      X.==%%#&X#@ooo  .                         ",
"                      oXNLKGLG=fABVCZ, o                        ",
"                      O sZFHFF&gHASHA$.X                        ",
"                      o 3xmCDH=cPHFKn @.                        ",
"                  .   ..OfsdmV%xLHFJ8 $                         ",
"                      .o 4xsstoaCNVx.O@ .                       ",
"                       o  yxgw ekMn% =X                         ",
"                       .+  ecg.tga= := .                        ",
"                        o#  ,8 69O ,9                           ",
"                         %*       7dO                           ",
"                          =33% &qvz#                            ",
"                           @02 7vr                              ",
"                              .X                                ",
"                                 .                              ",
"                                                                ",
"                             .. .    .                          ",
"                          +*11*#*:&+                            ",
"                        +%oo4t>,484:&o.                         ",
"                      . *%  -i45ty81>&OXX...                    ",
"                       o-#  >p7qaytw54>#XX.                     ",
"                      X@>&  :u8yattw544&+X.                     ",
"                     .o$,*  2pwyytt84;&%#oX...                  ",
"                    .X@=62  2a7wttw55,-##oooX..                 ",
"                    .X#-7,  =q3858844,-$++O+XX..                ",
"                    .o#-3=  &82654544;&#+o.ooXX.                ",
"                 . . X#;;o  #<<<444,;**$ooooOXX.                ",
"                 . ...O&&X  O>>:,44>;*&&#@oOooXX                ",
"                  ..o.X$#   O-::;>*>*#&##+OoooX                 ",
"                  ...oO$@  .O&==**&**###++oooXXXX               ",
"                . ...o+$@. .o%%=*&&&OO++@OOoXXX X               ",
"               . . .oo++O..oO%$%*&*&#+++OoooXXX..               ",
"                ....oO++OXo.#%$&*&*&##+OooooXXXX                ",
"                 ..XooOo....oOO@@@#+OOoooXXX....                ",
"                                         .                      ",
"                                   .                            ",
"                                                                ",
"                                                                ",
"                                                                ",
"                                                                ",
"                                                                ",
"                                                                ",
"                                                                "
};
