/* XPM */
static char *_d8454de014244adb9390db2b49a7fc4WbToi60r6IS6vqZn[] = {
/* columns rows colors chars-per-pixel */
"64 64 235 2 ",
"   c #0C0201",
".  c #0B0908",
"X  c #130301",
"o  c #1B0402",
"O  c #130A05",
"+  c #1C0B04",
"@  c #140D0A",
"#  c #1C0C0B",
"$  c #1A070B",
"%  c #16110D",
"&  c #1B120D",
"*  c #1A1007",
"=  c #140E11",
"-  c #151513",
";  c #1C1512",
":  c #1D1915",
">  c #1C151A",
",  c #1C1C1B",
"<  c #161718",
"1  c #230404",
"2  c #240A06",
"3  c #240C0C",
"4  c #2B0B0C",
"5  c #2A0806",
"6  c #310D0D",
"7  c #23130D",
"8  c #2A160C",
"9  c #3B1B0C",
"0  c #33190E",
"q  c #2D0D12",
"w  c #240C12",
"e  c #330E12",
"r  c #221513",
"t  c #2D1214",
"y  c #231A15",
"u  c #2B1C14",
"i  c #241D1A",
"p  c #2B1D1B",
"a  c #26151A",
"s  c #331314",
"d  c #331D14",
"f  c #3C1E13",
"g  c #39171A",
"h  c #1F201B",
"j  c #24211D",
"k  c #2A221D",
"l  c #2D291F",
"z  c #2B2116",
"x  c #352214",
"c  c #34241B",
"v  c #3C261B",
"b  c #322A1D",
"n  c #3C2518",
"m  c #1E1E21",
"M  c #231D21",
"N  c #2C1C23",
"B  c #3A1C23",
"V  c #1F2322",
"C  c #242423",
"Z  c #2B2522",
"A  c #2D2924",
"S  c #252529",
"D  c #2C2C2B",
"F  c #292629",
"G  c #332423",
"H  c #322B25",
"J  c #342D2A",
"K  c #3A2729",
"L  c #2E312C",
"P  c #35322D",
"I  c #3A342D",
"U  c #3D392E",
"Y  c #373125",
"T  c #2C2D31",
"R  c #362D33",
"E  c #2E3235",
"W  c #353432",
"Q  c #3C3532",
"!  c #3D3A34",
"~  c #3C3C3B",
"^  c #373539",
"/  c #401B14",
"(  c #432315",
")  c #43251A",
"_  c #4B261A",
"`  c #442A1D",
"'  c #4B2B1C",
"]  c #472716",
"[  c #4B2616",
"{  c #432C24",
"}  c #462C25",
"|  c #532E21",
" . c #4D3225",
".. c #41332C",
"X. c #4D322A",
"o. c #43362B",
"O. c #553224",
"+. c #5A3625",
"@. c #5A3629",
"#. c #472C36",
"$. c #433632",
"%. c #423C34",
"&. c #4B3B35",
"*. c #433D3A",
"=. c #4B3C3B",
"-. c #46373C",
";. c #5E3C33",
":. c #513E3A",
">. c #533734",
",. c #623B2D",
"<. c #653E34",
"1. c #643F39",
"2. c #454037",
"3. c #44413C",
"4. c #4A433D",
"5. c #4C483D",
"6. c #53433D",
"7. c #5A413A",
"8. c #65423B",
"9. c #6B443B",
"0. c #694637",
"q. c #734A3D",
"w. c #64412E",
"e. c #3C3D43",
"r. c #353B41",
"t. c #473D44",
"y. c #5A3B44",
"u. c #3D4145",
"i. c #3E444A",
"p. c #444444",
"a. c #4C4542",
"s. c #4E4A45",
"d. c #444449",
"f. c #45494B",
"g. c #4C4B4B",
"h. c #464747",
"j. c #544542",
"k. c #514B46",
"l. c #534D4A",
"z. c #594A46",
"x. c #4A514E",
"c. c #55514D",
"v. c #5A534E",
"b. c #545047",
"n. c #4B4D51",
"m. c #474C50",
"M. c #594C52",
"N. c #4D5252",
"B. c #4F5458",
"V. c #545353",
"C. c #5A5551",
"Z. c #5D5854",
"A. c #5B5B5A",
"S. c #56575A",
"D. c #6B4D44",
"F. c #654B49",
"G. c #734C44",
"H. c #744E49",
"J. c #65534B",
"K. c #78554A",
"L. c #675754",
"P. c #7C5B54",
"I. c #775853",
"U. c #64625D",
"Y. c #7D6159",
"T. c #5C5C61",
"R. c #605B61",
"E. c #5E6163",
"W. c #636463",
"Q. c #6A6B6C",
"!. c #686868",
"~. c #786664",
"^. c #6D6F71",
"/. c #6E7271",
"(. c #727273",
"). c #7B7B7B",
"_. c #71726C",
"`. c #5A655F",
"'. c #81584C",
"]. c #825B55",
"[. c #855E5A",
"{. c #875C54",
"}. c #85635B",
"|. c #8A655C",
" X c #896759",
".X c #936C5D",
"XX c #8B6561",
"oX c #876A64",
"OX c #936D64",
"+X c #956E6A",
"@X c #906763",
"#X c #8B716C",
"$X c #93736B",
"%X c #9B756C",
"&X c #987568",
"*X c #9C7B74",
"=X c #977974",
"-X c #8F7672",
";X c #A2786C",
":X c #A37C73",
">X c #A77D74",
",X c #7D847E",
"<X c #9D837B",
"1X c #9A8178",
"2X c #86857C",
"3X c #AA8276",
"4X c #A5827B",
"5X c #AB857B",
"6X c #AA887D",
"7X c #A58579",
"8X c #B1867C",
"9X c #B28A7D",
"0X c #8D8A88",
"qX c #AD8C83",
"wX c #A58983",
"eX c #B48D83",
"rX c #B78F86",
"tX c #AE948B",
"yX c #B59285",
"uX c #BB9286",
"iX c #B5948B",
"pX c #BB958A",
"aX c #B5988E",
"sX c #BB998D",
"dX c #BC9C92",
"fX c #B69992",
"gX c #BDA299",
"hX c #C2988D",
"jX c #C39D93",
"kX c #C69D97",
"lX c #C6A59A",
"zX c #D6AA9F",
"xX c #C7ABA2",
"cX c #D2B4A8",
"vX c #CDB2A7",
/* pixels */
"@ & i Z J J J Q ! ~ ~ 3.! L A ! P A A l b Y x x  .0.I.I.}.=XqXiXgXdXvXlXcXjXlXsX:.7.j.a.a.*.l.a.s.c.l.s.a.s.l.k.C.l.s.F : C h , ",
"@ @ & ; : i A ! ! ! ! ! ! P L ! L C A l b b x x  .0.H.I.}.OX>XtXdXiXlXjXjX9XlXlXJ.4.a.a.a.a.l.k.l.c.l.s.a.l.l.l.M.l.l.Z : S h : ",
"& @ # ; : i P a.*.! Q ! ! P D P L C k l n x x n X.;.H.I.[.|.%XiXfXqXlXiXsXaXgXvX#X=.y.a.k.l.l.l.c.c.s.s.a.a.l.z.c.l.s.Z h A j h ",
"y y i Z Z A ! l.3.! P W W L A P L k k c b x 9 n X.;.G.I.P.}.*XfXaXqXlXtX9X9XgXcXwX=.j.l.l.M.V.v.C.l.l.l.l.j.l.c.c.l.g.A h C h : ",
": p A J J Q 3.l.h.2.P P ! L L A L j l l n x x ` X.1.H.H.I.@X4XjXaX6XsX6X9XsXsXcXtX=.l.l.b.C.c.c.V.b.s.c.c.l.l.c.c.x.b.A - j : : ",
"y C H K J Q a.l.s.2.P P ! ! L L D j k l x n n ' O.9.H.H.].@X4XkXaX9X6X7X9XsXdXcXfXj.j.l.x.c.b.C.c.c.c.V.c.c.c.v.c.c.b.A - h - - ",
"; C H A J ~ s.k.s.2.W W 3.3.P L k : k z x v n ' @.;.9.H.[.@X:XfXaXtX6X7X9XaXsXvXfXz.a.l.c.b.x.c.c.c.c.b.c.C.C.v.c.C.c.A : h : h ",
"@ p K H J *.s.s.s.3.W ! 3.3.! P j j j z x ` ] ' | @.1.I.XXXX$XqX9XaX7X6X9X9X9XsXgXJ.6.s.c.b.b.s.c.c.b.s.l.c.C.v.c.V.c.L - h h h ",
"; i J H A ! a.l.h.2.P U 3.h.! P : ; k z x ` f ] | 1.<.G.].+X%XsX6X9X6X7X9X9X9XgXgXJ.5.b.s.b.s.s.l.l.l.s.l.c.C.c.c.c.l.W : , h h ",
"; i K H J 3.a.k.h.3.P P 3.h.! L i : l z n ` ( ' | ,.<.K.|.=X*XiX6X6X7X6X9X9X9XlXgX5.4.k.s.b.b.b.s.s.l.s.l.C.C.v.l.c.l.W : , : , ",
": y G Z A *.a.s.5.2.L P 3.5.~ P j : l z x ` ] +.@.| <.+X*X>X4XaX6X9X3X3X3X3X9XxXlX6.6.k.s.s.b.b.s.s.s.l.c.C.L.v.l.l.V.Q h h h , ",
"; : C k Z ! p.a.h.2.P P 3.h.! W j : j z x ` ' w.<._ 8.$X4X4XtXaXaXsX6X3X3X3X9XdXxX6.z.5.s.h.s.b.x.s.a.j.l.v.v.v.C.C.C.! h j j j ",
"r ; p i k ! a.s.5.2.P P 5.h.! U A : l z x ` ] w.9.,.9.{.+X<XdXaXgXhXyX9X9X3X3XaXgX2.6.a.s.a.s.b.b.s.s.s.l.c.v.M.C.C.V.! j C A C ",
": ; k p Z *.a.s.p.2.L P p.p.~ W V : j z x ] ] w.9.+.9.{.-X$XwXgXlXsX9XuXhX3X3XjXaX6.&.5.s.5.5.b.c.s.s.s.l.l.l.c.c.C.V.! j A L L ",
"; : C k Z ! 5.s.h.2.L U 3.h.! W l h l 8 x ] ' +.@.O.<.G.P.D.Y.1XsXpXyX9X9X3X3XsXtXJ.2.5.k.a.b.s.l.s.s.l.l.k.l.v.c.C.C.~ A L L L ",
"; ; k p C ! 3.s.h.2.L W 5.5.! W h : l y x  . .@.| 8.<.f ` v X.8.oX9XuX8X9X9X3X&XfX~.&.5.k.3.s.s.s.s.s.l.l.k.l.C.c.C.Z.3.L L W ! ",
"& ; A j k ! =.a.t.3.I P 3.s.3.W h , y z b { x 0 x K.I.v 2 * } &.D.3XhX8X8XhX>X+XY.1X:.a.a.a.b.b.s.l.l.l.5.b.v.Z.v.v.c.p.~ d.d.e.",
"; ; Z j k Q *.a.a.a.Q P 3.s.3.P h : y y z v 0 2 9 D.=XD.8 7 j.j.D.%XeX>X9XkX>X5X*X=XF.6.k.5.s.a.V.c.c.l.b.b.b.J.Z.v.Z.s.~ d.d.e.",
"; ; A j p Q =.a.a.=.P P 3.s.3.P j ; : 7 z x 2 1 8 P.wX[.{ g F.Y.I.OXuXhXkXzX>X8XwX=XL.6.k.k.b.l.C.C.C.V.v.v.v.Z.v.Z.Z.h.^ t.t.r.",
"; ; Z j i ! *.a.a.*.I P 3.l.3.W j ; ; & z n 0 2 5 I.*XP. .{ L.-X%X*XhXhXkXkX>X1.*X0XL.4.z.v.l.C.c.c.c.v.v.v.v.J.v.c.c.3.^ e.t.r.",
"; - k i p ! =.a.a.4.P J 2.s.3.W j & * * 0 v x 9 / '.qX=X1.>.[.-X=X>XxXrXhXhX8X/ XXwXl.t.M.j.a.l.k.s.s.l.c.c.v.Z.Z.v.V.p.^ t.i.d.",
"; & C i j %.*.k.a.4.Q J 3.x.3.W j % O + 8 v f 9 | +XhXeXI.y.I.+X+XqXkXeXeXrXkX>.I.wX:.a.l.k.a.l.l.l.l.l.k.b.v.L.L.C.C.t.W e.t.e.",
"; & Z i N %.t.j.a.a.W P 2.h.5.! j % O O 8 n f 9 _ +X8X8X@XH.1.[.:XfXkX%X>X>X>XF.oX#X-.=.l.k.s.s.s.l.k.a.j.s.c.v.C.c.V.*.T W ^ ^ ",
": - Z j k *.*.a.a.5.! P 3.5.u.! l % O X u ` ( / @.@X8XrX@X'.'.XXwXkXrX+X>XrX%XP.wX~.=.=.j.a.s.*.3.3.=.! ! o.%.5.c.b.l.~ F T T S ",
"; - j j k ! a.a.k.a.Q J 2.s.p.! C % % O 8 { n / <.;X8X|.{.{.].[.rXrX>X4X8X8X:X=XxX=.$.$.R $.I J H l l j k k u P s.A.l.W S C m D ",
"& & k j i Q t.j.j.a.Q J ~ s.5.~ A % & * 7 ` ( ( w.9X8X8X'.H.[.+XwXwX4X8X8XrX4X4X=Xc N Z j p i z j j z j H Z y k s.L.b.P C i S e.",
"% & k l i Q a.k.s.4.W P ~ 5.p.2.L % : * + ) _ ( <.;Xq.{.G.'.+X[.+X>XwX8X8XrX=X:XF.3 p i C N i A l Y I I %.%.H k s.Z.b.W C i W N.",
"@ % k Z p I =.l.l.a.I J 3.3.3.3.U : : * 2 x ` f | .Xq.,.].H.+X*X+X+X5X5X8XhX=X=X&.d J K Q $.P ..P U o.U 2.4.P k a.Z.V.W C C ~ S.",
"@ % Z A j I t.l.a.=.Q J ! *.! P L : : & 7 x ` 9 [ ,.&XOX'.<.4X:X>X%X;X8XrXkX4XqX7.Y $.U *.4.U I U U U Y %.5.H p a.Z.V.Q h A ~ x.",
". % Z H p J %.j.l.*.Q P ! W D A A h : 7 7 x ) 0 _ <.'.OX@X{.[.>XqX&X+X3XkXkXqXfX7.} ..Q =.2.%.U U U U U 5.5.J k a.Z.C.W , F ~ 3.",
"% % C A j K ! a.a.*.Q J P A , ; h , , : 7 x v ( +.<.H.OX|.&X|.*XqX:XOX3XpXjXqXiX&.Y U Q %.%.2.o.U U U 2.4.4.K k a.V.C.! , C W W ",
"% % Z A j H ! a.j.*.W J J j % . - , : : 7 x `  .O.<.G..X].%X#XXXqXqX%X8XuXsXqXwX7.{ %.=.! ! 2.2.2.%.2.U 4.3.H Z s.c.C.~ j h F W ",
"% % A A k l P 3.l.~ W J h % % % % % & j y 8 X.] ] w.K.q.q.X.I.Y.+X:X>X>XhXuX6X7X .o.o.2.! ! =.&.%.! %.2.2.%.I j a.Z.V.Q S j C C ",
". % j H k k P 3.k.%.W J j % * * ; : & y y 7  .9 ( ] +.0.D.X.F.oXoX*X;X;XhX9X6X<X{ o.o.U P ! =.$.%.U %.%.%.2.I u 5.v.l.Q A C C S ",
"- % Z A k A J 2.s.-.P A : O * : : % % j y 8 ` x ( [ q..X1XY.D.#X X&X3X3X3X3XaX7Xx o.U Y U 2.%.%.%.U %.2.%.%.I y 3.c.s.! D C h j ",
"% @ j A l l P 2.a.~ P l % O * & : % & y y & v n ] w.K.3X9X3XI.oXOX.X7X6X.X*XlX#Xz U U L U 2.3.o.! U %.2.&.%.P k a.c.l.~ D h , , ",
". % C A k l Y *.s.*.W N % O : : : % : : y & v  .[ +.w. X;X%XI.*X7X&X$X-X$X5XjXoX8 Y U Y $.&.%.! 2.U U 2.2.2.P y a.c.l.! F C < < ",
"- @ C H l l H %.a.*.J i O O : y : % j : y 2 x  .[ +.+.q.[.%X+X>X7X6X X}.7X6XdX$Xz l H Y o.$.U ! 2.U %.2.2.%.P z 4.V.s.W A h , , ",
"% % k H A l H %.a.*.J y O O & y : % : & y * 0 ` [ w.w.'.OX;X*X%X3X7X$X=X>X4XaXoXI c k H ..$.! U U 2.2.2.2.%.I k 3.C.g.P j C C j ",
"% @ j Y H l D %.a.*.J a . * y y : * : 7 k & 8 ] [ +.w.;X8X;X;X>X7X.X$XqX*X:XfXj.6.c u K } U ..$.2.U 2.2.2.%.I k 3.Z.c.P h C A C ",
"- . j H H l Y ! a.$.R % O @ 7 y : & % & : & 8 d ' ;.0..XhX>X%X>X3XY.&XiX4XfX#XK } >.B N J $.*.I U 2.2.2.%.2.! k 3.C.l.W C j C C ",
"; % k H l l Y ! 4.! J # O @ & y & y & & y r r c >.8.P.&X&X;X;X;XOX}.@X+X<X<X-.B >.L.F.N H %.K &.%.U ! 2.2.%.H y *.C.l.J C C C S ",
"; % k H H l b U 4.$.J @ @ @ 7 y y : & : i a r c >.@.K.OX;X3X;X XH.[.+X+X#X=.Z #.} y.F.#.Z Q Q =.%.U U ! 2.6.%.k 3.v.l.P C C C C ",
": ; k Y H b b ! t.Q J @ O # y y y u y y i y a d &. .,.G. X X0.0.oXI.XX*XF.w Q K #.y.#.#.V.*.Q I o.2.2.! o.4.! y 3.C.l.W j j , : ",
"i & k Y b b H U 4.$.H $ O * y y y p y i i i y u x f ` ' +.+. .0.=X~.oXI.-.i K M M.B #.R.R.!._.3.U U 2.! %.%.Q y 3.C.l.P V , < - ",
"i & j b H b H o.=.Q G O # * y u y p y : : > ; r + + n ] 9 +.P. X-X#X~.G =.l.a ^ R R t.M.~.).,X,XU.5.I U &.5.%.k =.V.l.P C j , - ",
"y @ j H b H H U 4.I H O O & y z r p y a > r ; w 2 X 8 ] ] w. XY.#XL.$.. t.Q.F t.T r.M.R.y.A.^.,X2X_.Z.5.2.4.I : ~ c.x.Q C C , % ",
"y & z H Y b H %.t.Q H O O & y y 7 u a : i > ; r * + X 9 2.+.q.P.I.Q y , C t.#.^ N m.t.M.T.t.m.E.Z.2X0XU.%.%.! j %.c.s.P A j , - ",
": & y A J A J ! a.Q J =   % y y y y y ; & ; : # # X X $ G 7.J.z.J @ = a a N N K F R.n.f.x.B.S.N.c.c.`.,XU.h.! j 5.c.s.W A M < < ",
": ; j A K D J ! a.Q G #   @ i p z & * # @ ; i a # @   X * c b z @ . a $ q y.t.N -.R.N.f.x.N.B.g.x.x.`._.c.P P j ~ c.b.W S , < , ",
"y & : A H Z K ! a.! G @   & y y y 7 # # # y p i # # X X X + + X @ X w w #.y.#.w t.S.d.h.x.N.S.N.N.`./.~ D P k j ! A.A.P > m V < ",
": & : A H C D $.=.! J ; X ; y y y * % & y G p r $ # # X X + X X 3 X w B #.y.B a M.M.f.f.f.N.Z.N.N.E.x.W `.Q.g.P 3.A.Z.P , m m , ",
": & y A A Z H ! a.! K ; @ ; ; r r # # r p G u $ $ * 3 # o o o o X 4 B B B B B N M.M.h.d.h.s.x.3.S.!.^ `.W.x.(.!.V.V.g.~ C < , m ",
": ; : Z A Z H %.a.=.D @ @ % @ ; y # * r p p r $ $ 2 w 2 2 o o 1 4 g B g B p a N t.h.a.p.h.u.~ ! E.^ W E.Z.A.A.p._._.W.Q < < C m ",
": - : Z H A J %.a.=.H ; ; # @ # r r r r 3 r 3 $ o + 2 3 3 2 8 6 / / e g B t r N ~ a.p.u.p.! P s.N.m u.^ L S.s.A.).0X).g., m S < ",
": ; : Z H G J %.5.3.Q i y : @ @ # r u r 2 $ 3 + o 1 2 q t t 6 s 4 / e e t $ a W g.x.f.~ ~ L L A.D V C V ~ ~ p.W.Q.^.).^.e., < m ",
"; ; a Z H k J U 4.%.U G H H ; : i a r r # 3 w 1 o 1 1 4 w 4 4 4 e e e e w a ; D N.i.p.x.~ ~ ~ ~ < C m C W e.d.T.!.Q.^.).).T m m ",
"; y : H H k Y ! %.%.U P W Z M i # a p p r 3 1 o o o 1 1 5 5 4 4 e e e w # > < L N.f.i.p.W h E < m < m S e.d.d.T.T.^.^.^.^.T.< m ",
"a > y Z G Z Y o.%.4.I I J i Z i @ ; p p 3 # 2 2 1 1 1 1 5 4 q q e 6 q $ & - h E i.^ e.r.A h L . m < S S f.d.r.m.S.Q.^.Q.Q.,XE < ",
"> y y C H Z I %.4.4.U H i ; M J @ # y p w 2 3 4 5 5 5 5 4 4 4 4 e 4 w o ; - V L r.N R T V E - - < m ^ D e.^ r.e.d.B.T.^.Q.(.^.V ",
"; a ; N H k P o.4.%.U j - ; S h.@ @ a G p 7 4 2 4 5 5 5 q e 4 4 q w w $ : < V S T m S M S T . < = m ^ S r.S r.r.r.i.B.!.Q.E.0XB.",
"a = ; k H k Y $.4.%.H % @ ; M j.= $ ; p p u t d 6 6 6 4 e e e 4 q t # # i < m , m N > M r.< . = = S T m E E r.e.r.i.i.T.T.T.^.).",
"> ; # N Z k Y o.2.2.j O - % - Q ; O O & 7 t d g s 6 6 6 e s e q q a $ > m , < < > a a r.R = < . < F S S E T r.i.r.i.m.B.B.B.m.^.",
"> # ; i Z l Y o.2.2.& . y @ = F : @ @ r 3 2 2 4 4 4 5 5 q e e q w q X ; < < m , > > R y.N > = . = F m S S < r.i.i.r.m.T.B.B.B.!."
};
