/* XPM */
static char *_43d10109a754ed387d6cd7c9df93a0eeC0m7wyKaGUBrwk8[] = {
/* columns rows colors chars-per-pixel */
"64 64 254 2 ",
"   c #1A336C",
".  c #1A356A",
"X  c #1E3A75",
"o  c #1D3773",
"O  c #162F68",
"+  c #223C75",
"@  c #233E7A",
"#  c #293F7A",
"$  c #25417C",
"%  c #2A437D",
"&  c #2A457B",
"*  c #34477E",
"=  c #263D81",
"-  c #264381",
";  c #2B4582",
":  c #2D4985",
">  c #2F4B89",
",  c #2B4788",
"<  c #334A84",
"1  c #3A4D85",
"2  c #334D8B",
"3  c #3A4E88",
"4  c #324781",
"5  c #35528D",
"6  c #3B538C",
"7  c #38568A",
"8  c #365492",
"9  c #3A5593",
"0  c #3C5A95",
"q  c #3D5D9A",
"w  c #37579A",
"e  c #2F518F",
"r  c #3E639A",
"t  c #395CA1",
"y  c #3D63A2",
"u  c #3C67A7",
"i  c #3D69B0",
"p  c #44558C",
"a  c #43588B",
"s  c #425A93",
"d  c #4A5E94",
"f  c #425E9B",
"g  c #455A94",
"h  c #44629C",
"j  c #4B649D",
"k  c #4A6699",
"l  c #52669B",
"z  c #546A9C",
"x  c #586C9D",
"c  c #516496",
"v  c #596B96",
"b  c #66739E",
"n  c #465EA4",
"m  c #4465A3",
"M  c #4966A3",
"N  c #4569A4",
"B  c #4C6BA3",
"V  c #4C6CAA",
"C  c #4468A9",
"Z  c #536CA3",
"A  c #5A6EA2",
"S  c #526DAA",
"D  c #566BA7",
"F  c #4C72AA",
"G  c #5472A5",
"H  c #5C72A5",
"J  c #5372AC",
"K  c #5B74AB",
"L  c #5D79AC",
"P  c #577AAC",
"I  c #4D76B5",
"U  c #5475B3",
"Y  c #5B7CB3",
"T  c #577BB7",
"R  c #576DB4",
"E  c #6274A5",
"W  c #6277A9",
"Q  c #637AAC",
"!  c #6B7CAC",
"~  c #6A77A5",
"^  c #657CB3",
"/  c #6D78A7",
"(  c #577EC3",
")  c #647DC1",
"_  c #5C83BB",
"`  c #5A85B8",
"'  c #5E8DB4",
"]  c #6B81AB",
"[  c #7283AE",
"{  c #7B85AC",
"}  c #6B83B4",
"|  c #6485BC",
" . c #6A89BA",
".. c #7385B3",
"X. c #7C8BB5",
"o. c #748DBB",
"O. c #7A8DBB",
"+. c #7589B6",
"@. c #7C93BC",
"#. c #7893B7",
"$. c #6D94BB",
"%. c #5C85C3",
"&. c #6889C5",
"*. c #758DC3",
"=. c #6C91C5",
"-. c #7493C3",
";. c #7C94C3",
":. c #7798CA",
">. c #7B9BD5",
",. c #6E8DD0",
"<. c #7CA6D4",
"1. c #7FAFEF",
"2. c #838EB7",
"3. c #8394BC",
"4. c #8898BA",
"5. c #979FBC",
"6. c #878CA2",
"7. c #8EA0BD",
"8. c #A9A9BD",
"9. c #8296C2",
"0. c #839AC3",
"q. c #8C9DC4",
"w. c #839BCB",
"e. c #8A9ECB",
"r. c #8797C3",
"t. c #929DC6",
"y. c #869BD3",
"u. c #8C99CD",
"i. c #8DA3CB",
"p. c #8AA3C7",
"a. c #93A3C4",
"s. c #94A4CB",
"d. c #9AA6CB",
"f. c #93AACB",
"g. c #9BACCD",
"h. c #99A8C4",
"j. c #9CB3CD",
"k. c #8BA4D3",
"l. c #86A6D5",
"z. c #95ACD3",
"x. c #9BADD3",
"c. c #95AAD9",
"v. c #9CB2D3",
"b. c #9CB2DA",
"n. c #9AB7DA",
"m. c #A3ACCD",
"M. c #AAAEC8",
"N. c #A4B2CB",
"B. c #A8B6CB",
"V. c #B3B9CC",
"C. c #A2AED2",
"Z. c #A4B4D4",
"A. c #AAB4D3",
"S. c #ABBAD4",
"D. c #A5B4DB",
"F. c #AABCDC",
"G. c #A6B9D9",
"H. c #B4BCD4",
"J. c #B3BEDA",
"K. c #BABCD5",
"L. c #96B4E8",
"P. c #A7BCE4",
"I. c #B2BEE2",
"U. c #ABC2DB",
"Y. c #BBC3D6",
"T. c #B4C3DC",
"R. c #BBC3DC",
"E. c #BCCADC",
"W. c #B7C8D8",
"Q. c #BCD2DF",
"!. c #9CC3F1",
"~. c #A9C6E8",
"^. c #B3C4E3",
"/. c #BAC6E3",
"(. c #BCCBE4",
"). c #B5CCEC",
"_. c #BCCDEA",
"`. c #B7C7E7",
"'. c #BDD2ED",
"]. c #B8D4EA",
"[. c #A5C6F2",
"{. c #ACCDF5",
"}. c #A5C8F8",
"|. c #B3CDF3",
" X c #BACDF2",
".X c #B3C8F4",
"XX c #B4D1F3",
"oX c #BCD2F3",
"OX c #B9D6F9",
"+X c #AFD2E8",
"@X c #C2CBDC",
"#X c #C6C9D9",
"$X c #D3CCDC",
"%X c #C8D3DD",
"&X c #D6D8DC",
"*X c #C6CACE",
"=X c #D4E1DD",
"-X c #C3CDE3",
";X c #CACEE4",
":X c #C2CEEB",
">X c #C5C9E7",
",X c #C5D3E5",
"<X c #CCD4E5",
"1X c #CCDAE5",
"2X c #C3D3EC",
"3X c #CBD5EB",
"4X c #CCDAED",
"5X c #C5D9ED",
"6X c #D3D5E4",
"7X c #D3DBE5",
"8X c #D3DBEC",
"9X c #DADDEB",
"0X c #D7D9E7",
"qX c #C3D5F3",
"wX c #C4DAF4",
"eX c #CBDBF3",
"rX c #C7D7F9",
"tX c #D3DCF2",
"yX c #D8DCF7",
"uX c #CAC9F1",
"iX c #E5DEE7",
"pX c #E2DFF6",
"aX c #CEE1EA",
"sX c #D4E1ED",
"dX c #DCE2ED",
"fX c #DCE6E8",
"gX c #CFE3F5",
"hX c #D4E2F3",
"jX c #DBE4F3",
"kX c #DCE5F9",
"lX c #D8E7F9",
"zX c #DFF0F8",
"xX c #E1E5EC",
"cX c #E5EAED",
"vX c #ECECED",
"bX c #E6E4E4",
"nX c #ECF2EE",
"mX c #EBF1E3",
"MX c #F4F3ED",
"NX c #E2E6F3",
"BX c #E4EAF4",
"VX c #EBEDF3",
"CX c #E4EAFB",
"ZX c #EBECFB",
"AX c #E5E6FA",
"SX c #F0ECF3",
"DX c #EDF2F4",
"FX c #ECF3FB",
"GX c #E6F3FD",
"HX c #F2F2F4",
"JX c #F3F4FA",
"KX c #FDFBFC",
"LX c #F8FAF8",
"PX c #F2ECEA",
/* pixels */
"O O       o o + o + + + + + + + + + $ + + & % 4 % 4 4 1 * & * # # @ + $ X X $ $ o + + ; # + $ $ @ # $ @ $ $ $ X = X @ @ @ @ - - ",
"O       o o $ $ $ % % $ $ $ % - - % 4 : : 1 6 7 d c z x c c c c s 9 1 4 4 2 + & ; ; $ # # ; % # # $ $ - - @ @ - @ - @ + @ @ X - ",
"    o o X $ % & : : : & : , : : < , 2 e 2 2 6 z { 2.2.4.2.4.4.4.2.{ b v c p 6 6 < 4 ; : : # ; # $ $ + - $ - $ $ - $ $ $ @ - - X ",
"  o + + $ % : > > > 5 5 2 5 5 5 7 5 w 8 > 5 Z o.m.A.A.H.K.K.K.8.m.M.m.5.6./ b c d p 4 < 2 < < * % $ $ % ; $ $ $ @ $ $ $ @ @ X = ",
"o o X # - ; > 2 5 8 8 8 8 8 8 0 8 8 w w w B | y.w.;.:.j.S.R.<X6X6X&X$X*XV.5.2.{ b x p 3 9 9 6 3 1 4 % % ; % % - % % $ $ @ @ X @ ",
"+ + # # - , > 5 8 9 0 q 0 r 0 r q q r r N Y P P y y r F | 0.F._.S.S.kXW.8.K.K.5.4.X.v g s 3 6 d s a 3 < % ; ; : & & $ $ @ @ @ @ ",
"@ @ % % - : > 5 w 0 q q r r r r r m C B V N s 0 C C C F F _  . .T G G.rX@X#X$X$XH.C.! j j 0 5 q g g d s 1 < : : ; ; % $ $ @ @ @ ",
"@ % % $ % : > 5 w q q r m u N C C y I %._ _ &.>.l.-.&.:.:.=.o.$.q.g.j.t.q.O.+.~ 6.K.D.+.K S r 5 6 k l d s 2 < - : : ; % $ $ @ @ ",
"$ $ $ & % : : 5 a r u n h I ' 9.;.A.U.' l.>X#XqX/.B.F.b.c.v.A.3XfX0X&X&XE.N.X.H f f.Z. .>.:.D C 0 w D Z 7 8 2 < : , : $ $ $ $ @ ",
"$ $ $ + - & 2 5 r q t R V T -.qX7XU.e.=.1XMXmXG.l.w.P.Z.g.1XJXvXBXvXvXvXNX9X-X^.(.lXn.o.w.v.i.&.m u S S r 9 9 e e : , % $ % @ @ ",
"@ $ $ $ ; , 2 0 q C V B Y I =.z.>. .` ` Z.<XB.<.=.z.F.H.7XZXSXPXVXVXBXSXSXZXVXZXZXzXW.p.,.,.v.^.=.y t V 0 5 8 q 8 5 , % $ - - X ",
"+ + $ $ ; , 2 0 q V U P ` ` F %.%.-.f.i.c.D./.7.v.T.%XdXFXBXZXZXVXVXSXSXPXBXvXvXNXkX(.k.%.` f.$Xv.&.I F y f q w 8 5 > & $ - X - ",
"@ # $ $ ; , 5 0 B &.( &.| w.;. . .G.8X%XBXNXyXP.T.3XBXLXnXvXJXDXnXDXHXHXJXVXVXnXcXcX;Xb.:.' G.vX6Xc.| F i t f q q 5 2 : $ $ @ X ",
"- $ $ % - : 5 r A o.w.;.Z.AXNXE.=XzXv./.0X*X%XU.(.CXZXPXHXnXnXnXnXHXHXHXHXHXFXZXZXDXW.D.z.P.g.GXZX9. .` i C s 8 0 5 > % - $ @ = ",
"- % $ $ : , 8 j O.S.W.].U.8XVXHXLX&XU.GXAXAXFXfXBXDXvXvXDXHXLXLXJXHXHXHXHXHXHXHXDXZXyXI.2XNXB.i.z. .P.G.C C h r 0 5 2 - - # @ = ",
"- % & $ & 2 q S r.#XNXG.-.l./.7XyXkX7X8XaXgXjXBXvXVXSXHXFXFXDXnXHXHXHXHXHXHXHXHXDXHXPXvX8X&XFXp.` ,.a.,X-.I B y 9 5 2 - $ - @ @ ",
"- - $ $ : > s W M.6XxX^.w.z.gXrXwXrXeXeXhXhXhXCXBXVXDXVXHXDXHXHXHXHXHXHXHXMXHXFXHXHXHXJXxXsX@X7Xv.=.=.3X-X .I V q 8 2 - % @ + @ ",
"- $ $ % - 2 Z *.F.tX7XN.S.~.].oXoXwXqXwXeXgXjXjXBXBXVXDXVXHXDXHXHXSXHXHXMXHXHXJXLXHXDXcXZXNXV.1Xz.' $.c.q.=.I V q 8 : % % $ + @ ",
", $ % - % 2 H ;.s.;XoXoXOX{.+XqXOX].'.'.wXgXhXjXBXVXZXVXVXHXHXDXDXVXHXHXHXHXHXHXBXLXHXvXVX9X#XFXb. .` %.( V F C q 8 2 : % @ @ @ ",
"- - $ $ : s A ! M.9X2X~.~.{.OXXXXXXXoXoXrXeX8XjXBXVXVXVXVXVXVXHXHXVXHXHXHXMXHXHXVXJXVXDXvXBXZXJXkXh.;.%.I T S f f 0 5 - $ @ + # ",
"@ ; # # 4 6 z O.#XDXDX'.gX+X}.{.{.XX].OXwXrXgXjXBXBXVXVXBXvXVXVXVXVXVXSXnXHXHXVXHXcXHXFXcXDXBXxXMXnX-X .` ( V m f 0 5 : $ @ @ @ ",
"@ ; = - : 2 A c.$XPXcXv.F.XX!.[.{.XXoXoXOXqXeXjXBXBXBXBXVXBXBXVXVXBXBXVXSXSXHXHXVXVXVXFXBXcXdX9XR.AX-Xo.%.J B i q 9 2 % % $ @ @ ",
"X - # ; > 9 Q k.8X6Xv.>.c.{.}.{.}.XX'.oXOXoXeXhXjXNXjXCXNXNXBXBXBXBXBXNXBXSXVXVXcXJX9XBXFXfXNX8XL.q.(.b.:.-.P N q 5 2 : % $ # @ ",
"X o @ = e f ^  .k.Q.-.<.U.~.}.}.{.XXXX).oXoXeXjXNXkXNXNXNXkXNXBXBXNXxXNXBXVXVXVXcXBXBXBXBXVXkX@XG.h.hXsXT.-.S M q 8 : 4 : $ @ @ ",
"  + $ $ 2 q V T | H.nXS.'.).L.{.[.OX}.+X+X XtXsXkXkXjXjXjXhXjXcXNXNXtXNXjXCXDXVXVXNXdXjXCXBXBX7XT.VXvXbX-Xo.B C q 8 2 : $ % $ + ",
"  + % > 5 w M U %.^.ZXMXkXOX5X[.+X~.OX}.|.oXqXlXkX9XdXjXhXhXjXBXNXjXtXjXjXjXVXVXBXNXjXjXjXjXNXsX9XBX0X@XF.*.V m q 9 5 , % $ $ X ",
"o @ $ > e q V U P &.c.&XMXZX4X[.+X+X[.}.}.wX2XyXhXjXjXhXsXtXdXBXkXjX4XhXhXjXNXVXBXNXjXhXhXjXjXNX8X9X9XZ.w._ B r q 0 5 : & % $ X ",
"  + - > 8 q M F _ ` &.t.SX*X+X}.}.}.!.[.{.oXwX4XhXhXhXsXeXeXtXjXhXjXtX4XlXjXdXZXNXjXjXhXhXhXjXjXxXZXFXT.0._ B r r 0 8 : ; $ + + ",
"  + ; , 8 f T =.p.-.%.:.tXg.'.gX}.L.[.!.XXXXqXhXhXtX8XhXeXwXtXkXhXlXeX5XhXhX8XAXBXNXhXhXeX8XtX8XBXJXvX%Xs.Q N m 0 0 7 > - - @ @ ",
"o + @ : 2 f _ c.9X>.,.c.wX:X8X7XgXOXL.[.{.XXrXhXhX4XgXeXeX2XeXkXhXtXgX5XgXhXtXjXNXjXhXhXeX4X3XE.1XDXPX9XZ.} V C r r e > : $ $ X ",
"+ + = : > 5 N _ Y.Z.$.^ -.fXvX;XjXlX[.{.}.XXoXeXgXeXeXwXqXoXeXkXhXeXgX'.rXhXeXhXNXdXhXgX5XeX3XT.V.9X9XY.z.| N r 0 0 5 2 : : - - ",
"+ @ = % : w q y :.,X .l.f.u.aX9Xg.S.OX~.[.XX5XeX4X5XeXeXqX'.eXjXtXrXhXoXwXgXqXeXjXjXlXgX2XwXeXR.uXtXY.a.k. .F h r w 7 e e e e , ",
"# # ; : : w w 0 u =.' <XKXW.c.c.<.N.}.!.[..X5XrXqXeXqXqXoXoXrXgXsXqXgX).rX5XrXwXyXdXlXrXjXyXyXmXKXfXD.s.#.^ U r r 0 7 5 8 2 2 8 ",
"% , = 4 5 C m g w h n.,XxX].' ` <.U.OX!.!. X2XrXqXqX2XqXXX'.qXjXhXqXgX_.rXwXeXoXeXaX1XlXBXcXHXBX3X-Xx.s.#.] S N m r 9 2 2 0 w e ",
": ; = , 7 Y w.~.U.Q.W.T.,XN.&.%.:.G.L.L.}..X_.rXrXqXoXoX X X2XhXhXqXrX'.oXwXoXoXqXlXhX4X8XcXDXA.0.g.d.c.0.] K S q w w 5 5 5 > 8 ",
"> , , : ; d O./.PXKXaXc.n.`.@. .=.L.}.1.L.P.).OX XqXoXoXXX).'.sX8XoXwXOX|.rXoXqX).gXhXCX9X&X,Xu.;.s.d.u.l.] Y z o.w.*.z k M 7 1 ",
"; 2 2 : 9 R 2.M.9XnX(.:.l.(._.s.0.0.~.L.}.[.oXoX.X.X).{.|.XXoXhXgXrXOXoX.X'.).oX,XjXDXbXbXBXeXg.;.G.@Xj.i.@.T K G.f.Z.V.Z.o.n 9 ",
"< 3 2 < p R 9.H.dXbX5Xn.S.*X9X(.jXU.wX+XoX3XyXeXrXrXoX).{.|.qXgXhXrX'.wX).5XwXqXkXjXxXvXVX8Xj.v.i.(.4Xg.#.;.L p.n.e.(.0X$Xh.K , ",
"2 2 2 6 9 n ../.NXBXT./.sXKXnXDX&XT.GXdX<XxXNXtXlXhX3XoXoXXXwXhXhXeX5XhXeXkXzXlX(.h.3XKX;X*XS.r.W.wX} +.f.{ B.E.c.:./.BXxXx.K > ",
"8 w 3 5 8 n +.J.bXvX'.l.P.Z.j.,XZXz.1XBXjXcX0XCX9X9X<X2XqXoXeXjXjXyXsXCX3X9XBXjXE.x.S.-X;XDXfXu.m.4.f @.GX@X7XBXaX/./.j.A.y.n 2 ",
"2 2 3 3 w n X.T.iXbXl.>.b.f.I _ K.8XsXBXxX1XT.uX7X1XE.T./.eXhXhXcX7XcXBXdXNXVXdX:Xx.w.v.jXJXiX@XN.7.#.~.9XKXbXBXGXW.} ^ ,.V 2 - ",
"2 2 3 9 t M } z.T.'.~.S.V.gX7.v.f.D.^.%XiXsXU.(.-XT.h.g.S.'.1XsX<X<X<XsXsXjXGXNX/.f.@.v.6X0XxXCXZXdXsXM.pX6XV.L.f.w.U V V 0 % $ ",
"2 2 3 9 n M L ;.$.&.U.JXJXFXfXZXW. .p.(.U.^.~.T.^.D.q.Z.F.S.W.4X;X8X3X8X4X<XkXjXT.z.p.S.9XxX%X,XbXbXmX7X,Xf.l.-.*.&.T N 7 : $ + ",
"2 2 3 w q m S Y T ( w.V.(.@XHXiX+XG.4XKXLX<XD.c.b.x.3.Z._.;X<X7XyX3X@X8XjX4XhX2XZ.~.^./.<X6X@X2XBX8X(.n.l.>.k.a.p. .Y C 8 , # @ ",
": 2 6 9 q m M V B T &.&.$.$.B.xXP.9XbXvXLXcX%X~.F.Z.4.T.:X@X<X8X9XdX<XjXjX'.2XqX^.)./.(.8XtX-X`.@XY.S.0.&.o.S.<Xv.o.Q M 9 2 = # ",
"4 2 8 0 f M M C D T I T ` %.y.5X9XnXbXkX8X9XBX<X'.g.4.B.R.K.@X6X1X<X#X8XkX,X(.qX/._.'.2XtX3XR.I.<XLXDXD.9.S.W.T.e.o.} B 6 < & + ",
"; < 8 q f j B N V F Y l.n.&.,.f.g.%XcXZX<X3XtXv.c.z.G.wXeX3X9XtXjXkX3XtXkX2X/.2X_.:X(./.;X<X3X3XAXxX6Xq.c.b.H K } W H l p 4 & o ",
"# : 8 f f j B h k T | S.6XZ.-.=.L.^.(.5XU.uXlXT.9.Q [ v.A.m.B.U.R.R.V.H.4XeX(.2XqX_.2X3XlXhXdXdXbXY.g.@.$.J h S Y G v c p 4 = @ ",
"; < 9 0 h h M B B U U | o.).~.@.1XLXmX/.P.~.'.:Xs.7.F.3XyXAXZXNXNX9XNX3XhXhXS./.qX:X:X(.eXhX8X;XS.d.r.o.L ] h r z Z z k a 1 $ + ",
"; < 9 s f M M j B N V J B  .:.;.I.dXBX-XU.U.(.A.0.3.Z.T.S.h.N.<X1X<XJ.S.T.^.I.).:X_._.(.,X<X>X@XS.g.3...] H B r k Z z d a 1 % & ",
"= < 8 0 f m B B B N F J V N Y &.l.G.3XAXtX,XE.a.0.v.~.(.:X(.,X4X6X<XR.T.A.N._.rX5XeXrX2X-X3X-XR.S.d.9.] Q A K g 7 z j g p p & % ",
"4 > 9 w f f j B G B F F U V U T %.+.f./.`.2XoXG.A./.tXjXNXpXNXSXNXNXCXjXzX8XE.2XeXeXrXtX3X5X>XJ.A.h.3.] ! H K j 0 h j d p 1 * & ",
"; 2 9 w s n j j M B F B J J U _  .o.;.i.c.G.G.3.H ] p.g.f.3.f.G.T.T.A.t.^.^.d.rX4X5X3XqX:X/.S.A.N.t.4.] E Q H z s 0 d j p # p # ",
"; 2 9 9 0 q h j M Z G K P J G ] -.:.-.:.i.b.D.d.N.U.,X8XjXjXBXdX7XsX6X%X7X%XE.jXtXeXqX:X/.G.C.Z.g.5.2.[ W ] H H j 7 9 d p p p # ",
"; > 8 9 0 f f n M B G G K K L  .@.e.i.z.x.x.Z.Z.S./.,X<X<X-X1XsXBXdXjXdXjXGXNX6X4X3X/.I.F.d.s.x.f.7.2.[ W ^ W H Z s 6 s p p # * ",
"4 2 8 w w s f f h B G J Y ^  . .;.0.r.s.Z.G.a.] A O.q.i.t.X.r.Z.Z.G.Z.t.Z.^.D.x.,X2XJ.Z.S.s.q.e.t.a.#.[ Q Q ^ x A h 2 2 p p * p ",
", 2 9 9 0 f f j B Z K K K ]  .o.;.r.0.p.x.Z.d.a.d.T.;X@X;X8X6XfX3X7X%X(.(.3X,X:X;X@XV.g.x.t.r.9.4.t.2.! / E Q H A l s < 5 g * 1 ",
"2 2 3 9 9 f d M B G K K L Q  .o.;.9.@.p.C.D.D.I./._.;X;X3X<X<X8X9XdXiX3X8X9X9X-X/.K.m.p.z.s.3.@.4.q.2.../ W W W x Z g 2 2 6 a 1 ",
"= 2 2 9 s s h l Z G K K K Q ..o.-.9.9.p.x.r.X.X.p.f.v.v.q.X.3.g.M.A.B.a.a.A.A.s.q.m.Z.q.i.s.X.;.2.2.X...! W W ! H H d 6 * * a a ",
"2 2 2 9 9 s f l Z Z K L L ^ } +.@.0.0.e.t.X.~ ! +.p.g.g.f.f.a.d.x.v.f.3.;.v.v.s.{ t.D.q.9.s.2.;.X.....X.! H H W E A l s * & p a ",
"2 2 2 9 9 s f M Z H K L ^ ^ } } +.3.p.s.s.3.O.r.h.A.K.K.;X3X;X<XR.K.K.A.N.H.H.m.a.5.g.r.O.s.9.o...! ....! ! H H W x D d * % * p ",
"2 2 2 3 6 s d l Z H K Q Q Q Q } } @.3.@.r.e.D.I.>X:X>X;X;X(.@X6XyX8X6X>XR.-X@XH.t.4.5.3.X.t.r.! Q E / ! ! ! A A W l A c 3 & # 6 ",
"2 8 9 9 9 g f l Z A H W L Q W Q W ! ....[ [ X.3.k.z.d.d.s.9.3.s.C.m.h.q.2.q.a.3.! 2.2.3.+.3.r.W Z l A ~ ! ! A l A l l l a * # % ",
"9 2 9 s g f d Z z Z H H H H H H A A W ! ! ~ E b E ..2.O.O.! / ..3.4.3...W O.r...E ! / ! ! X.2.x c c z b / / x c l x c c d 1 + + "
};
