/* XPM */
static char *_21a92cc0f6d4d74dd563a9715480732wMGQVgzlIcW68hp1[] = {
/* columns rows colors chars-per-pixel */
"64 64 253 2 ",
"   c #010103",
".  c #020B0E",
"X  c #070505",
"o  c #140000",
"O  c #190702",
"+  c #1A1604",
"@  c #040D12",
"#  c #0A1315",
"$  c #0C151A",
"%  c #0B1619",
"&  c #111A1E",
"*  c #13171A",
"=  c #2C1A03",
"-  c #382402",
";  c #292717",
":  c #352A19",
">  c #393418",
",  c #2D2908",
"<  c #151D23",
"1  c #181F24",
"2  c #0F1A20",
"3  c #162125",
"4  c #152429",
"5  c #1B242A",
"6  c #1D292D",
"7  c #192427",
"8  c #1D2832",
"9  c #1F3235",
"0  c #222B2E",
"q  c #25292B",
"w  c #383629",
"e  c #242C33",
"r  c #292F34",
"t  c #262B38",
"y  c #253136",
"u  c #2A3236",
"i  c #2C343A",
"p  c #2D393D",
"a  c #253639",
"s  c #32353C",
"d  c #323A3D",
"f  c #383D39",
"g  c #2A3328",
"h  c #162017",
"j  c #583806",
"k  c #473819",
"l  c #48300A",
"z  c #463925",
"x  c #364236",
"c  c #564419",
"v  c #715510",
"b  c #48442A",
"n  c #564828",
"m  c #4A4838",
"M  c #554A36",
"N  c #595538",
"B  c #57542B",
"V  c #645738",
"C  c #6A5129",
"Z  c #6D6637",
"A  c #776635",
"S  c #2D3D43",
"D  c #2C3544",
"F  c #343C43",
"G  c #3A3E44",
"H  c #353946",
"J  c #202F42",
"K  c #1D2E42",
"L  c #433D47",
"P  c #364145",
"I  c #3A4246",
"U  c #354349",
"Y  c #3C444B",
"T  c #3D494D",
"R  c #374A4B",
"E  c #3D4B52",
"W  c #3A4656",
"Q  c #3D5255",
"!  c #2D4645",
"~  c #41464D",
"^  c #414A4E",
"/  c #474B46",
"(  c #4C5247",
")  c #595847",
"_  c #444C52",
"`  c #4A4D54",
"'  c #464957",
"]  c #455155",
"[  c #495256",
"{  c #45545A",
"}  c #4B545A",
"|  c #4D595D",
" . c #475A57",
".. c #52555D",
"X. c #525A5D",
"o. c #565956",
"O. c #514E4C",
"+. c #655D4C",
"@. c #596159",
"#. c #4F635A",
"$. c #67644A",
"%. c #676756",
"&. c #776E4E",
"*. c #4D5B61",
"=. c #4C5968",
"-. c #545C63",
";. c #595E65",
":. c #565C69",
">. c #535569",
",. c #4B6262",
"<. c #556165",
"1. c #5A6266",
"2. c #5C656B",
"3. c #5D6A6C",
"4. c #576769",
"5. c #5B6973",
"6. c #5E7275",
"7. c #62666C",
"8. c #636A6D",
"9. c #686968",
"0. c #7A7A66",
"q. c #636C72",
"w. c #676D75",
"e. c #657175",
"r. c #6A7274",
"t. c #6B747A",
"y. c #68757B",
"u. c #73767A",
"i. c #8A540C",
"p. c #946617",
"a. c #B87A1B",
"s. c #947131",
"d. c #AB7728",
"f. c #B87928",
"g. c #A8782E",
"h. c #C17B2D",
"j. c #8E784A",
"k. c #AA7A43",
"l. c #887A6C",
"z. c #BC842A",
"x. c #A88739",
"c. c #BA8A36",
"v. c #B9963B",
"b. c #C5872A",
"n. c #C68B36",
"m. c #C4933B",
"M. c #CB943A",
"N. c #C99737",
"B. c #D39939",
"V. c #CA942D",
"C. c #D7A03D",
"Z. c #948B4D",
"A. c #9B8C4D",
"S. c #978946",
"D. c #9B9249",
"F. c #8D8A58",
"G. c #948C54",
"H. c #9C8B54",
"J. c #938D5B",
"K. c #9B8D5B",
"L. c #958557",
"P. c #8D935C",
"I. c #949354",
"U. c #94935C",
"Y. c #9B935C",
"T. c #9A9357",
"R. c #8B884A",
"E. c #A78C47",
"W. c #B88A43",
"Q. c #A7934B",
"!. c #B89747",
"~. c #A58C55",
"^. c #A79656",
"/. c #B69B57",
"(. c #B6A157",
"). c #968D66",
"_. c #959363",
"`. c #9B9462",
"'. c #999765",
"]. c #9A9474",
"[. c #8D896C",
"{. c #A59866",
"}. c #B29C64",
"|. c #A99872",
" X c #B7A667",
".X c #B6A779",
"XX c #BCB37A",
"oX c #AEA86E",
"OX c #C69944",
"+X c #D59947",
"@X c #C69853",
"#X c #CC9450",
"$X c #C9A24C",
"%X c #D7A344",
"&X c #CAA456",
"*X c #D8AA5A",
"=X c #DAB459",
"-X c #DDB44D",
";X c #E5B758",
":X c #E6AE52",
">X c #C7AC66",
",X c #C6B469",
"<X c #DABA68",
"1X c #C9B87A",
"2X c #D9BC77",
"3X c #C4AD76",
"4X c #E4BB68",
"5X c #E6BE74",
"6X c #EDAE64",
"7X c #DDC36B",
"8X c #D7C479",
"9X c #E6C46B",
"0X c #E3C47C",
"qX c #E6C777",
"wX c #F3C777",
"eX c #E4D079",
"rX c #DEC05E",
"tX c #757C82",
"yX c #6B7981",
"uX c #B5AB90",
"iX c #BEB9AA",
"pX c #C7B786",
"aX c #D5BB83",
"sX c #C6AF89",
"dX c #C1BFB3",
"fX c #D8C788",
"gX c #DAD08A",
"hX c #D7C796",
"jX c #D5CA90",
"kX c #E7CA87",
"lX c #F2CC85",
"zX c #E9D28A",
"xX c #F4D388",
"cX c #E8CC94",
"vX c #E7D397",
"bX c #F5D798",
"nX c #F3CF91",
"mX c #D7C8A4",
"MX c #D9D0AD",
"NX c #E7D7A8",
"BX c #ECDCB6",
"VX c #EDD6A7",
"CX c #FAE8B7",
"ZX c #FFF2BB",
"AX c #F7E3AF",
"SX c #FCECC5",
"DX c #FAEDC8",
"FX c #FEF3CC",
"GX c #FCF3C5",
"HX c #FCF5D6",
"JX c #EDE6C4",
"KX c #FFF4E5",
"LX c #CBC6C2",
/* pixels */
"I I i < . < Y i u P I y I [ t.2.-.>.D W R | X.f L z < 5 t a 2.8.r.7.2.i a x ,. .{ <.t 8 ' H 7 < 2 S R Q ,.{ Q D p e @ 2 s H F i ",
"r T 5 7 e Y F P G P } 2.3.3.F _ ' Y D a 3. .P i ~ -.' < 9 < } 8.7.9.2.i x a ,.,.] [ W H w.' 5 < 4 E { { =.Q U ] y u < e q i P i ",
"u Y p p e G P ` -.2.] e _ G s q.2.Y x 9 {  .f x S W =.W J 8 Y 3.q.e.*.8 D D Q ,.8.#.] -.4.*.4 4 S *.Q a U Q R E p i 7 p e i d 7 ",
"] i i G ~ | 8.2.-.P I i | G 1.8.6.e.| p R <.0 x 9 K W K U H s 9.9.r.8.F H ' w.,.| <.<.{ [ 4.! 4 U Q R < 4 ! _ U U u < i d u a & ",
"T G X.-.<._ } 8.<.X.8._ T } q.1.4.y.y.W Y *.E T S 9 S [ d x = M B x m ) } t H :.5.=. .#.3.*.W t U W R 8 9 9 Q R U i 0 5 d r y & ",
"} _ | } I i p 1.q.2._ _ -.-.3.e.4.6.yX<.S W 4.| R h g b $.).|.uXXX.XF.V O./ D 8 W =.| #.3.-.>.8 J { R 4 9 9 E E R G i < p r y < ",
"i i } 1.I T Y | q.-._ ^ _ ^ u.<.<.e.yX5.W W ' ..O.+ B XXhXhXvXfXfXzXzXjX X&.O.L t D { Y 2.s ~ D < { { 9 4 9 Q { _ i u & y i a 6 ",
"I F X.-.G _ T } 8.] [ _ [ 3.q.3.w.5.yX6.Q W ..M z {.vXgX1X>X X/.^./. X8XfXhX|.) o.G < t G t s ~ 8 E { R 9 Q { { T < 0 7 0 e a p ",
"u I } -._ p P -.2.-.[ ^ 2.1.1.e.e.r.e.5.U x m n 3XvX1X}.D.S.H.H.Z.T.S.Q.}.aXvXXXB ) [ d D F < T 8 S E Q Q  .E { D $ < e < F i p ",
"i p _ -.-._ | r.-.-.] X.} 1.1.} ~ r.4.6.I o.k sXgX,X~.Z.T.T.K.Y.'.T.G.T.H.A. XzXXXN %.X.G y 6 P p e _ { Q { ] -.Y @ G i & e p U ",
"p I -.1.2.q.r.2.1.} _ ;._ 3.| _ E :.u.;./ z .XcX XA.G.U.U.P.U.U.P.J._.`.Y.I.D. XgXXXM / @.] 4 W T 5 *.{ *.{ *.{ 3 t u i % q ^ p ",
"I F ~ 3.8.2.e.q.2.] ] } _ t._ | <.*.u.o.: ).NX XA.S.U.'.P._.U.P.J._.)._.U.I.Z.Z.XXhX).m 9.-.*.a { 4 E { { _ { U < 2 < 5 u 3 P a ",
"G P Y 3.1.w.w.3.-._ -._ _ tX[ _ Q 8.u.m $.MX.XK.K.Y.G.oX{.G.I.I.U.U.P.U.U.I.T.Y.G.XXvXZ z G *.:.>.i i :.*.*.Y e 8 $ * ~ s < p 0 ",
"Y F e _ 1.e.w.2.1.T X.[ } t.q.} Q tX9.V sXjXJ._.F.Y.H.>X^.G.Z.I.U.J.F.U.U.I.T.G.^.^.fXsXz @.] Y :.{ t } G { t $ < r [ F Y 0 i $ ",
"G T 7 . r -.t.7.1.T | _ } t.u.q.e.1.$.F.vX{.U.P.U.T.x.&Xg.Q.^.).J.U.'.P.F.G.E.!.&Xg.E.nXj.: d ' :.*.e 7 1 t # $ 5 ..L ' ~ e 0 2 ",
"_ ] r . 7 5 _ 2.| _ <.d _ tXe.y.2.@.B pX1XR.P.U.U.A.E.*Xd.W.L.)._.J._.J.'.T.S.&XOXg.s.aXpXM 8.5.7.{ G 5 G 2 . t } } G ~ G ~ 0 0 ",
"_ ] D @ 7 F 5 _ 1._ 2.7 T tXt.8.<.) j.vXT.F.P.P.P.`.E.&Xp.g.~._._.P.U.J.U.T.!.$XOXg.p.}.hXF.] 5.5.H { e 7 * 7 ` i _ >.t q G i 3 ",
"] | Y # d [ r T X.T X.6 p t.q.1.e.z oX3XG.U.P.P.J.`.E.<Xd.p.^.G.K.K.I.T.F.T.$Xm.n.g.s.~.fXoX( *.5.G ] i 7 u X.` 5 5 L t t t s # ",
"H _ _ & F -._ T } _ ..5 i t.:.q.x N mX}.K.Y.P.U.'.L.Q.&Xd.p.x.!.Q.Q.D.Q.S.!.OXV.f.W.s.k.(.jX$.#.e._ T U d } % F ;.D < 1 s s q # ",
"_ _ [ i ] -.1.} -.[ -.i r _ t.[ x ].hXH.{.K.I.I.K.Z.^.@XOX+Xn.$X!.!.!.!.!.!.z.b.h.W.s.S.Q.gXF./ 8.X.6 <. .7 # $ 1 ' ' D i / &   ",
"[ T _ y [ 3.-.} -.| *.~ D -.X./ m oXsXH.K.K.G.^.Y.~.E.$X6X6X+Xn.m.OXM.v.!.z.z.d.p.k.s.k.H.pXuXw 8.] 5 p & . 7 D Y *.:.-.I s # * ",
"[ ^ X.e Y 2.~ -._ :.} H ;.7.^ o.B fXoXL.).K.).K.K.Q.*X*X6X:XB.M.M.M.N.M.c.d.OXd.i.k.k.l.H.oXhXb o.-.F T ] ] ,.<.-.{ -.[ ` r   # ",
"@.T ] d q y 5 ;._ -.` Y q.F 2.f &.gXY.F.].).`.j.C !.;X;X%XC.z.V.B.M.V.B.c.g.#Xd.i.x.j.~.Z.T.jXZ / 2.7.2.] 4 | R 8 S <._ ~ $ X u ",
"X.[ ] x . 0 ^ -.' -._ 8.' -.~ m `.fXG.'.&.> + X c kX-X-X;XB.z.V.OXc.V.V.n.OXc.i.p.x.s.~.T.T.8XZ.m q.-.q.R & { a a 9 _ ] u . * w ",
"[ ] x T d 2...| } ` -.~ ......m oX,XA.'.m X + , c ^.eX&X6XOX!.*X*X&XV.V.V.B.d.i.OX#Xj.~.`.L.1X X) 8.w.<.F y Q S S 9 _ [ 7 . 7 f ",
"T o.] ] G q.3.` ~ :.H } ;...7.m 1X XS._.%.+ b B c - A x./.s.j j j v s.OX$X!.@Xk.k.s.C k.`.G.,XpX) r.} ^ U y { S 4 a  .x % * s G ",
"P  .[ [ Y w.t.` ~ ..` } } 8._ ) 8X(.Z.U.[., b B +.l o O O O l l j - O - - - O o O o O Z _._.}.aX) ] q.1.F y U _ 9 R | 9 . $ s f ",
"I ( I  .~ :.t.} ` ....^ 7.o...$.jXQ.Z.U.].b k $.+.: O o O z M C V M z o o O O - j A j.^.P.P.|.hX$.1.6.[ G a U _ ^ @.^ & # # i d ",
"[ ] Y } _ | q.` ` :.G 7.;.9.` %.jXI.J.J.].z B %.+.z O l.= z n C z : z - s.x.!./.&X#XW./.I.J.~.NX%.d 0 7 ` ;.} ] } 2.x # & 3 s I ",
"/ ] ^ } ' | 5.~ -...-.9.7.9.x 0.hXI.`.).].k N $.+.: - sXz z n k : O O n ,Xv.v.M.n.n.M.W.Z.Y.^.hX%.0 X.8.8.-.G ` -. .6 * 5 & G { ",
"q T } } _ ..7._ -.-.7.u.9.@.~ 0.hXH._.J.{.B N 0.) l s.cXC k k + > O X V aX8X1X&X;Xm.N.!.^.I.D.hX0.<.o._ 7.} ` 1.;.I % & < # H *.",
"& P X.[ _ } 2.' ;.-.;.u.9.1./ l.pXK.`.F.{.Z > 0.+.- k.nXj.- n - > O + j.GXZXZXAXbX$XN.v.D.Z.D.vX0.x x d ~ G t ~ ` u # < # 2 _ U ",
"p ] ] _ `  ...^ X.~ 8.r.r.8.( 0.hXA.'.F.L.uX$.g k +.nXaXaX- C c k > : uXFXCXDXSXZX,XN.m.~.G.A.hX0.f [ -.;._ G *.} H $ # % q <.I ",
"8.2.2.I ^ X.] [ } ~ t.r.r.r.o.0.fXS.G.].J.mXHX[.) |.sXcXcXs.- z z n > JXHXSXDXSXGX1Xm.OX~.H.Q.hX%./ G d ~ i 0 G G H D . @ e P  .",
"7.w.8.[ X.} } ^ } ~ u.r.8.@.@.%.jXE._.F.J.pXHXiX+ ; O }.NXmX&.k l = ].HXDXSXHXSXGX2Xm.OX~.H.Q.jX0.X.X.9.r.` ' -.Y _ s G # I u q ",
"5.e.1.} [ ^ X.} ` r I 3 u ^ 4.) jXS.U.).K.BXHX[.    O z HXVXaXBXMXmXHXHXDXSXSXSXZX8Xv.OX/.E.^.hX%.O.X.` Y H G } 2.>.-.G p q d 3 ",
"G _ q.3.<. .[ } } $ 8 H } F _ $.jX^.F.F.`.hXJXMXX O X l.KXBXaXBXHXHXJXJXHXDXDXSXZXkXc.M.@XS.!.hXM  .} u u I 1 ~ :.2.-.t } P & d ",
"U i p ] -.8.-.Y Y < S { -.} [ ( pX XR.R.oXNXHXuXX   ; iXKXBXhXVXFXJXHXDXSXSXFXZXZXeXN.N.$XE./.hXm I X.* -.r.7.*.Y 7 G F ] [ 0 0 ",
"Y P S Y P I | G Y 2 t W 4.q.{ m jX^.I.I.{.BXJXuXw * u.LXKXJX2XAXAXGXSXGXSXCXBXVXbX7XN.C.$Xx.>X1X) Y u } ;.[ s F D s F U } @.I ^ ",
"{ p T Y R T [ F D 5 U { =.4.{ N '.1XS.I.K.BXBXuX[.l.l.dXHXmX2XbXCXCXZXZXVXhXNXvX0X&XV.C.N.x.2X|.w r.d u r 0 t e s t G T i [ T P ",
"4.F T e.P ] I I H H U 5.*.w.p / P.fXK.J.{.NXCXmXB $.[.uXMXpXcXnXbXAXAXvXvXvXcXcXwX%XB.B.%Xv.8XL.* _ 1.@ 8 F 8 T -.F e T 1 ^ p 0 ",
"q.{ i Y d [ T P U w.*.5.5.Y y ( &.jX~.L.`.NXBXNXk - k ).mXfX@X>XVXcXvXvXvXkXfXnX4XOXC.V.C.=XkX&.g 0 _ -.. r t p i u 5 T 0 F r r ",
"-.5.I Y d ] ] T _ ] 8 ' *.< D o.Z jXoXK.).NXAXVX~.C c - s.c v >XvXzXzXkXkX8XkXxX*XB.B.V.V.=XkXM o.;.2.2.T G i $ < e e F r s < q ",
"w.q.} } f [ #.^ p i 8 8 t D e.9.N uXpXH.L.pXCXbXfX/.}.~.s. XqX0XcXbXzX8X0X0XzXxX:XB.b.V.B.4X.X; g d F ~ *.*.*.-._ D e d 0 D q 2 ",
"q.7.2.3._ X.[ I # t 8 < i 3.u.r.) [.hXT.H.1XAXvX8X<XzXkXcX8X2X0XnXkXzX8XqX0XxXwX+XB.h.V.V.<Xl.: r t i D 5 D U F T [ $ u G e 5 $ ",
">.w.w.o.Y [ I X.2 i i { q.yXe.r.9.N cX(.R.^.fXgX<XwX5X<X5X0XkXzXnXcX0X7XqXxXlX<XB.V.b.N.N.<XN I G H P p S u e i r U 7 7 Y t $ ~ ",
"] q.2.` ` } f X.5 G 2.yXt.w.e.8.u.w oXfXS.D. XeX5X4X5XkX5XkXvXvXcXkX0X<XqXxXlX*XB.h.h.+X=X(.> t ' 5.-._ e U Y F i T # i s e ..~ ",
"} q.-.] O.^ u X.G ~ tXq.6.e.e.3.y.: Z vXD.D.,X7X9X5X5X4XqXxXzXzXkX2X<XeXzXlXeX=Xn.h.h.M.=XA w { 2.q.5.4.i G { i i G & i ` -.~ $ ",
"q.5.....` _ i ` G ..e.3.4.6.4.6.6./ > XX8Xx.5X&X4XqX4X<XqX5XlXkX9X7XqXeXeXlXlX*Xf.h.n.OX2Xl { 5.=.3.7.q.{ 5 i 1 t F < F 5.Y @ 1 ",
"w.:.7...;.G F _ ~ G <.e.Q R ,.6.6.d w F.fX7X9X%XOXqX9X9X4X4X9X9X9X4X7X8XkXzXlX*XM.h.M.5Xj.> *.=.*.-.w.=.1.I u 9 u S < q.G $ D 8 ",
"e.;.;...;.I :.r.G ` ;.q.! ! R 6.q.u O.) sXkX7XrXN.+X9XwXlXlX5X5X<X*X<X8XkXnXxXwXN.d.*X3XV w Y 4.*.*.q.} -.E U G a U _ D 5 -.D < ",
"3.7.` ` ;.} 8.[ ` ..[ <.! ,.R 4.w.s f %.&.jXqX=X;Xb.M.+X*X#X#X#XW.$X5XkXnXnXlX4Xc.$XkXZ N x _ 4.*.2.3.3.w.-.:.T D I i i { 8 T t ",
"q.1.` ;...# F 1._ ^ ` ,.R ! Q 4.9.r L u.x ).zX=X-X-Xh.h.h.f.f.d.OX6XqX5XqXlXqX$X!.zX{.; O.p | -...-.d E q.-.' i P i H Y 1 Y >.U ",
"2.-.` ....* Y X.~ [ } [ ,.a 4.6.7.s ` 9.x ; XXcX;X;XC.h.h.h.b.+X;X5X5X5X9X9X9X7XbXoXw w _ F [ =.2.Y e i *.1.T p I F D 0 ' 4.E >.",
"q.2.` o.L < 1.y...;.X.T 4.3.yX6.u.s 9.T f w b XXkX*X:Xb.a.a.B.;X;X4X5X9X9XrX9XgXpXM g 1.~ F | *.-.u G p _ -.~ p G u 8 _ { _ { | ",
"X.-._ ;.G G yXw.;.~ X. .! y.6.1.7.` 2.d R x w z 3XlX*X6Xb.a.C.:X9XqX9X;X9X7X8XXXw X.9.} -.a *.*.} F ^ r } } ^ Y Y 8 ] -.T | *.[ ",
"~ -.` ..s  .r.6.7./ ..} R e.e.8.r.:.d F T [ r.O.z uXaX5Xm.z.:X6X0X2X9X7XeXgXU., w 7.>.5 ' 5 _ | -._ & d ;.} ^ Y Y D *.Y ..*.E E ",
"~ -.O.;.0 #.yX<.q.} [ | | } 2._ 5.-.t I 3.r.7.u.9.z j.}.>X>X2XkXkXcXfXkX XZ , g f >.t H ' t P 7.| 3.[ -.;.` ~ G I r { | -.U G } ",
"_ | F ..u 2.6.6.q.1.T _ _ e s s >.a i <.u.r.<.w.tX7.) z N L.|.sX.X.Xj.V x ; I } >.' t H ' s -.1.} 1.1.q.1._ F I Y t X.-.E 5 8 S ",
"} } ..-.7 4.6.5.q.7._ _ [ p q 2.*.8 Y e.e.e.y.q.7.tX;.7.w z z M z M / @.8.T D :.>.H ~ ' L i ~ 2.1.<.-.2.-.[ G Y G i <.-.U y 9 6 ",
"X.Y ..[ 0  . .4.e.3.| ] { T F q.t U ] e.e.t.e.T t ;.w.>.5...o.) +.) 8.q.3.=.D :.D H ..~ ^ 0 q } 3.<.3.1...` F G F 0 <.<.S y y 9 ",
"| ' ` F 9 ! ! ,.y.4.1.} E _ ` ~ H { T 8.3.r.1.T >.L yX7.:.Y ..L o.` :.4.6.=.*.U t H H H ] e e 0 d f  .8.1.;.I ~ p # [ 1.P 4 3 ! ",
"| 1.2.` 6 a R Q 6.4.q.<.^ _ 7.~ G D I 3.3.8.| I } ` w.u.<.3.} | P 3.X.3.r.3.R p R d t ' G e % % .   < P [ [ H G i   i 2.{ S p { ",
"-.] d 1.4.P ! Q 4.3.8.-.i s ~ ..-.I 2.-.3.8.X./ ~ ~ t.w.e.e.| E { E @.#.@.#.6 p Y T ..~ G 5 . . # # @ * u _ G Y i   3 | <. .{ { "
};
