/* XPM */
static char *d998c40f968044c19f5f5275bd7eaa45LTzG18ZnBJ854Utq[] = {
/* columns rows colors chars-per-pixel */
"64 64 256 2 ",
"   c #3A1C15",
".  c #2E180B",
"X  c #282719",
"o  c #392819",
"O  c #39341C",
"+  c #2C3016",
"@  c #382926",
"#  c #3C3527",
"$  c #393336",
"%  c #2A2D27",
"&  c #20191C",
"*  c #4F1C11",
"=  c #4B2C1C",
"-  c #462819",
";  c #572A1A",
":  c #48351C",
">  c #56351B",
",  c #51270C",
"<  c #672A1A",
"1  c #772C18",
"2  c #68361A",
"3  c #77381B",
"4  c #66320D",
"5  c #4C2C23",
"6  c #452A26",
"7  c #532C23",
"8  c #5B2C26",
"9  c #4C3323",
"0  c #45342A",
"q  c #4C3A2A",
"w  c #483726",
"e  c #553424",
"r  c #5B3323",
"t  c #5B342B",
"y  c #553B2D",
"u  c #5D3B2B",
"i  c #573926",
"p  c #483A34",
"a  c #573C34",
"s  c #672C25",
"d  c #643425",
"f  c #6C3424",
"g  c #653B23",
"h  c #6C3C24",
"j  c #64352A",
"k  c #6C342A",
"l  c #643B2B",
"z  c #6B3B2C",
"x  c #743B24",
"c  c #7B3B23",
"v  c #763829",
"b  c #643C32",
"n  c #6E3C33",
"m  c #683837",
"M  c #743C33",
"N  c #7B3C35",
"B  c #772C29",
"V  c #5C1E23",
"C  c #68431D",
"Z  c #79461D",
"A  c #48442A",
"S  c #584429",
"D  c #494436",
"F  c #5C4334",
"G  c #574737",
"H  c #5A5438",
"J  c #4F5136",
"K  c #6C4323",
"L  c #63432C",
"P  c #6C432B",
"I  c #664928",
"U  c #734324",
"Y  c #74442C",
"T  c #7B432B",
"R  c #7C4B2C",
"E  c #784827",
"W  c #77512B",
"Q  c #644334",
"!  c #6D4333",
"~  c #6B443A",
"^  c #6B4B3C",
"/  c #664837",
"(  c #744334",
")  c #7B4334",
"_  c #734A32",
"`  c #7C4B33",
"'  c #73443B",
"]  c #7C443C",
"[  c #7B4C3C",
"{  c #754C3B",
"}  c #6A543B",
"|  c #74523C",
" . c #7A5537",
".. c #5A4317",
"X. c #513C40",
"o. c #564F48",
"O. c #674943",
"+. c #754D43",
"@. c #7B4942",
"#. c #695646",
"$. c #7C5444",
"%. c #775948",
"&. c #765B54",
"*. c #7A644D",
"=. c #786655",
"-. c #737059",
";. c #7E6D64",
":. c #84381B",
">. c #8E321D",
",. c #843C2C",
"<. c #873A26",
"1. c #953A28",
"2. c #863D35",
"3. c #943932",
"4. c #862F26",
"5. c #A83D2E",
"6. c #A33B18",
"7. c #8F451D",
"8. c #84442C",
"9. c #8C442B",
"0. c #844B2D",
"q. c #874726",
"w. c #93432B",
"e. c #98482A",
"r. c #88542C",
"t. c #844434",
"y. c #8B4433",
"u. c #834A33",
"i. c #8C4B33",
"p. c #844B3C",
"a. c #8C4C3B",
"s. c #89453C",
"d. c #934C34",
"f. c #9A4C34",
"g. c #934C3C",
"h. c #984737",
"j. c #845333",
"k. c #8A5334",
"l. c #83533C",
"z. c #8B543C",
"x. c #8C5A3A",
"c. c #865A39",
"v. c #945434",
"b. c #94553B",
"n. c #9B533B",
"m. c #9B5B3D",
"M. c #975837",
"N. c #97532B",
"B. c #A5462B",
"V. c #A24C33",
"C. c #A34D3B",
"Z. c #A94A37",
"A. c #A55435",
"S. c #A4533C",
"D. c #AB543C",
"F. c #A35B3D",
"G. c #AB5838",
"H. c #B65739",
"J. c #B25131",
"K. c #86623B",
"L. c #9A613A",
"P. c #A8633C",
"I. c #B7643A",
"U. c #AB441E",
"Y. c #C8562B",
"T. c #C25335",
"R. c #C0673D",
"E. c #834B43",
"W. c #8A4A44",
"Q. c #964C45",
"!. c #845C44",
"~. c #8B5C43",
"^. c #8C5C4C",
"/. c #875546",
"(. c #9B5443",
"). c #935C44",
"_. c #9C5B44",
"`. c #9B5C4B",
"'. c #955648",
"]. c #895D53",
"[. c #985A53",
"{. c #944953",
"}. c #A64B42",
"|. c #A35442",
" X c #AA5443",
".X c #A45B43",
"XX c #A85A49",
"oX c #B65A47",
"OX c #A75D52",
"+X c #B75249",
"@X c #8A634C",
"#X c #876548",
"$X c #9C644C",
"%X c #986647",
"&X c #896856",
"*X c #976757",
"=X c #9A7359",
"-X c #917251",
";X c #A36344",
":X c #AB6444",
">X c #A3634B",
",X c #AC634A",
"<X c #A66B49",
"1X c #B76649",
"2X c #A46553",
"3X c #AA6453",
"4X c #AC6C53",
"5X c #A66B58",
"6X c #B36B5C",
"7X c #B86956",
"8X c #A8745A",
"9X c #B87559",
"0X c #AC724E",
"qX c #997467",
"wX c #917267",
"eX c #A86C65",
"rX c #A87866",
"tX c #BB7563",
"yX c #B77A66",
"uX c #AA7B72",
"iX c #B77B72",
"pX c #BA6C65",
"aX c #865D61",
"sX c #C4594B",
"dX c #C56649",
"fX c #C76A57",
"gX c #C77659",
"hX c #D66C54",
"jX c #C77A66",
"kX c #D57864",
"lX c #CB736C",
"zX c #E17E6B",
"xX c #B0845D",
"cX c #998470",
"vX c #A9846D",
"bX c #B98467",
"nX c #A88675",
"mX c #B78977",
"MX c #B5937A",
"NX c #C88669",
"BX c #D4836A",
"VX c #C88876",
"CX c #D78875",
"ZX c #CA9478",
"AX c #D99372",
"SX c #C3946B",
"DX c #E4947A",
"FX c #C6805C",
"GX c #B67981",
"HX c #B59789",
"JX c #C79885",
"KX c #D4978A",
"LX c #E69987",
"PX c #CDA692",
"IX c #D3B4A8",
"UX c #E3C0A2",
/* pixels */
"< , - - k B 8 Q / r ! > Y Y Y R 0 b k 7 b N m o j r b l l u t b ' > E ,.T ^ : < B i : f ,.* 9 ^ Q / #.G t V O.y n ! 7 a e q y t ",
"n wX=.: t N 7 - %.^ t r b ! d &.cXi r %.@X; P -Xu > %.%.S i #.*.G w | z ; O.+.! 5 +.+.9 a M m o ! i - w &.O.6 + 5 5 o p p p 6 @ ",
"<.4X$XT .XXXc Y i..Xc d.,X,Xc 3X4Xu.<XAXNXL._.XX$Xz.VXVX$X/.=X*X} p.9X<X9.fXjXV. .fXkX .%XlX+XS 3.Q.p.[ mXrXL S t.( ; { $.{ z [ ",
"1.q.q.:.S.f.1 x f.P.:.>.f.F.1 n. XR %XBXBXF.d.oXg.c 5XbXrX`.2X$X .w.1XP.r.gXkXP.r.oXdXr.%XhXsXE <.h.t.k iXmX_ r _.b.3 Y _ ` Y %X",
"~ e j j z [ ' / t ( z g ( @.Q a h i > ` #XL > ) $._ $.| !.| | %.&./.`.&X%.+.' / e l [ t ! $.+.r > L ^ q G #.F y m m e 6 6 y 6 a ",
"y 5 $.'.z.$XrX=Xr { @Xb.$X*X*Xb j rX-Xp.*XmX@X' JXmX=X~.rX*X! [ rXNXVXZXHX]./ &Xj./ %.`.[.H #.W.#X#XqX&X9 9 ~ './.*X].+.Q =.].].",
"i < n.1XJ.J.I.I.j.<X9XA.G.G.1X8.b.jX1X|.1XlX2X .DXLX9XjXVXVXg.i.h.J.J.I.7Xu.k.jX7X;X;XkX4XC -XgXZXtXpXyX( M (.Q..Xn.n.8.2 $X`.n.",
"a b s.w.w.e.e.e.; '.4X.X,X;X2Xu. .1XdX1X<XgXL.S 4XNX9XyX8X9XR u.w.v.M.1X6X^.^.pXOXyX6X6XW.S vX6X<X7X7X9Xh P %Xg.Q.t./.] d @X^.[ ",
"D O.# % e w % p @.y o n M ^ 9 [.E.y ^ ].*XF *.'.u a Q #.Q y O.Q G - e F q O.#./ D ~ ~ G D n M S U +.O.6 ! r - p e 0 0 6 - = 0 $ ",
"c }.c 9.fXgXR (.<X#XK m.6X8XE 4XbX .#XSXZXK.%X9X6X8.b.4Xb.T tXSX'.8.1X9Xb.>XjXgX| tXBX9Xj.S.C.e.S.yX*X8 eX[.j t n.(.) v ,.<.v n ",
"3 <.c _.fXFX0.y.S.F.q.1XBXFXN.gXBXb.m.AXAXn.G.gX1X:.,XgX,Xe.NXAX-Xj.xXNXa.'.gX7XC 9XAXbXr.m.v.7.,X6XmXE.'.~.5Xn 9X9Xc.0.;Xv.x l.",
"s @.m ) OX,Xs /.[.*Xp.s.g.W.t.OX/.' p.*X5XW.W.Q.E.Y ^.'.( ! [.=XqXE.$X[.] @.'.Q.m '.5X8XN W.a.8.<.(.'.2.OX'.{.k W.Q.M B W.Q.N E.",
"p & H #.I | -X-.q #.&X-X%.| F O w H } %.#.^ a 9 Q { { ! t u 5 a #.Q y y G D 0 G #.A S i q o F ^ H J w A D A J A F F q - o 0 y 6 ",
"Q.d eX7XgXgXBXCX#X*X9X8X%X9XbXc.%.bXbXNXbXtX$X| %X<X$X5X2X5Xg !.jXjXgX9XVXuX@XmXNX$X0X7XjX~.<XBXPXlXjXKX[./.uXyXrX2X4Xa.; ' =X).",
"$X> 5X7XL.1XfX0Xg. X+X1XS.H.1Xc b.fXdXgXgXdX Xu.:Xn.9.e.n.>XE $X5X9X0X0XvX=Xc.bXOX%X<XgXjXc.c.7XiXNXG.jXjX[.a.i.[.m.>Xz.e %.MXbX",
"@.# @.s.Z 9.w.x.t 2.,.E R y.`.$._ XXf.k.z.|.a.^ k.c 2.v t.'.k ! /.i.i.d.'.W.s.6XXX5X$XXXOX[ z XX=XL.N.P.x.h ).q.{.W.'.E.6 a wXrX",
"'.&XS m ' G & 9 %.u > %.qXb @XrX=.L  .{ S O -XMXH E Q.%.O &X=X+.X _ !.O.G #X{ p l $.~ 5 Q &.a e @.] +.&.qX{.~ % G D # 6 %.b 0 p ",
"5.4X<XfXC.~.Y VXAXx.%XJXUX=X0XBX9Xq.fXdX%Xx.NXAX%X1XkXBXj.jXCXfX! 1X1X'.b.1XoX,.P.BXyXi.*XbXyXT ,X9XM.R AXBX`./ VX9XY T (.g.N ` ",
"e.9.b. Xf.,XE tXH.9.8XvXZX<XG.dXAXw.1X1XP.>XbXAXxX0XjXjXc ,XgXfXW.gXdXoX|.1X1X<.0XAXNXf.9XjXZXd.:X9XP.0.AXDX4X .ZXZX-X).g.2.,.'.",
"* S &X&XE.{ = 9 < .   o w   r W.%.> c ` @X%.| _ } %.^.@XF Q t j ^ @Xp./.[ P ; r T 8X*Xk $.*X].u a./.~.` E.E.! = #.#.q G O.5 - = ",
"F nXPXHXmXrXnX=.w ;.cX-.wXcXcXO %.MXbX8XHXPXqXy rXnXvXmXMXcX&.wXMXMXvXrXvX*.- &XrX]./.rXHX@.* qXmXuXMXrX&Xm #.&.#.=.cXcXwXq b ].",
"h 9XjX<X7XdXAX$X=XPXKXLXLXKXZXu.jXAX9XgXLXjX`.u.kXgX,XoXjX8X .*XgXyX7X1X7Xl.* 0XyXNXNXVXZXbXs =XtXbXbXyXtXc.!.jX1XOXtXyXmXf 8.h.",
"j 2X7X0X7X1XfX-X,.yXVXtX7X6XOX1 2XLXNX0X1X6X2XY oX%XL.oXkX2X( s.G.3X3XH.G.~.d ,X_..XXX X:X9XT ).f.%X$X:X9Xc.` OXF.;XtXeX*X< 8.C.",
"o.O.= : = ( l H G 0 @ + + O o 5 G : i l - o p o.u : A z ] / 0 a , a ~ c < o.0 = f < 3 3 v '.].$.2Xc.%Xa.v > I s ; r t a G O 5 ; ",
"fX).; _.`.!.Q mXJX%.&XyX6X@X@XKXqXP $XeXbXY /.IXuX; ^.XX>XE %XdXu.J W.2.! 2.8X%XS k [.@X%.iXKXbX*XjXCXvX#.qX&X*.: $.( , +.*X$.o ",
"fXjX7.>.B..Xi.VXVX%XxXAXNX<Xk..X8Xz.;XgXFXm.k.bXbXZ M.oXgX4 A.dXsX2  X,Xj.1.1.B.~.e.H.,Xm.oXgXFXj.9XBXmX^.VX4Xx./.jXfXq.i.C.(.h ",
"z.c.K q.w.z. .=XbXK.j.0X0Xr.c._.~.a.0.9X2X$X[ !.M.K.x.G.1Xq._.}.Z.K b. .> n.A.H.U d.A.:.T S. XP.c.7XfXtX'.lXpXXXl.3XXXt.b.XX(.; ",
"0 G %.E.P #XwXH L *X&X~.@XrXuX( qXHX].@X=XPXuX  $XmXrX>X2X@X' s &X&X&XcX;.n t M *.| Y P ^ > > #XH H H A o $ G F w 8 s - : r +.G ",
"/./.6X6X}.fXZX*X$.PXKXMXJXPXPX{ nXPXyXrXiXJXHXy 7XSXxXgXNXPX-XqXHXIXPXIXIXiX#.].HXvX5XrXuX&.+.MXKXtXjXeXeXQ $.^.@X/.^.*.%.{ eXcX",
"0.3.e.V.Z.B.V.P.m.kXfXgXgXfX3Xu.d.,X:XP.:X:XyX .dX1XI.I.R.SXx.=X*XeXsXe.oXfX( Q.|.|.f.V.C.u.8.oXsXD.dXdXfX2 R v..XZ.D.%Xm.1.A.M.",
"K Q.R 2 0.n.i.*.r.gX7XP.L.XX.X_ u.b.d.3 q.z.5XQ B > Z N.J.N.z.).NXn.XXk.h.h.i h.XXi.d.Z.h.n h (.Z.A.G.H.1X8.(.Z.b.|.XX'.p.,.n.b.",
"&X@.j F u s.E.aXcXbX3X#X!.E.$.-.%.u { *Xl - &.HXaXD *.vXZXd %.qX' j } A - t -.O.6 w G 7 o $ D 5 7 H S h b p G 8 0 5 6 p o.&.a . ",
"q.f.1  XXX7XV.1XY.P.1XT.hXL.q.R.7XK.K.%Xc.W SXgXbX<XJXJXvXK.:XI.l.x 6X5X! *.PXnXJ { |.8.K _.S.q.O.W.,X<.y.iX`.f h (.g.; *XJX{.e ",
"6.6.:.v.S.I.7.B.Y.I.I.T.hXP.N.H.H.|.6X7Xn.,.S.oXXX4.}.OX>X1 5.5.9.:.D.C.3 i.VXiX%.3.}.oXh.3. XoX_ <.B.e.r.S.C.E Z A.f.3 x..X8.P ",
"3.9.d = o > T n.G.F.M.j.z.Y M k R 2.t.) p.Q.) l. .` p.a.$Xs.(.3.K U i.b.` ~.eXeX/ N 3.,.v t.W.x I V.J.E 2 w..X> q.G.9.4 j.XX'.> ",
"E.[.qX%.| ` *X9X/.*X`.#X@X[.*XO.} #X$X&XcXuX$.+ H #XK.` =X#X@X5 %.wX=XwX&X&X#.a $.U U E  .^ i W %.W.0._ b t t F l.E.p.[ ! 7 Q Q ",
"4 3 m.V.H.J.G.N.2  XT.I.dXhX1X/ C XXjXtXVXVXVXS '.6Xn.F.7X'.!.5 eXlXjX9XeXrX' 7 7XXX1XH.1X`.2 3X*X].@X`.eX#.6 &X[./.'.[./.j ].wX",
"> K N.B.Z.B.N.d.S .XD.H.oXoX_.I q.A.oXf.n.h.tXP .X1Xh.h. XQ.[ Q C.oXA.A.I.:Xr.K +XS.1XB.+X|.B |.C.k.x.V.6X%.* h.<.c c 4.<.t.`.a.",
"- t z B ) f d y Q ! d k ! ] m %.h Y R 8.b.` @X!.u._ 2 < f k F #.) 2 C Z 9.c h S (.2 U i.2.! ~ [ h.U R a.[.} > y.<.2 x ,.h.h P c ",
"'.b.U Z %X$X~.[.8X%X_ |  .` < 2XeX~.{ w.(.P L yX=Xu e #.@.s ~ nXO.9 Q ^.OX] W.].M } *./.8 %.HX$.6 O.^ 5 @ #.=.8 7 0 o.s &XHX&.= ",
"e.5.q.Z V.,X#X8.;XH.v.q.1.1XE V.+X:X0.h.f.l.Y XX+Xx.Y }.sXT x +X4Xc h.pXtX9.H.Y.e.7.1X<Xv @X<XSXF Q. XW C fXdXZ c.J.oXK  .1XXX..",
"1.D.i.3 d.y.c y.$X;X_.c 4.h.c h.H.G.q.:X<.q.1 .XA.v.Z B.H.9.Z V.P.3 A.fXgXq.B.I.n.h.|.n.n @.E.$Xv 3.5.8.i.lXfXw.,.+X+X3 i.oXC.1 ",
"7 0 # 6 w a u } o : } L S S > S 9 n ( n j d z / g _ f h p.{ _ P _ h f ; 2 i , i , g r l a D 0 S j f T 2 z [ ) x ; $./.j n k k d ",
"[.e k a.( Q.fX~./.| [.OX5X2XoX.XJ ].uX].wXeXuX*.%.uXrXwXuXmXmX&X*X*Xn.3 ) ].a O.nXHXMXnXwX#.9 / -X&X=X!.} A A | ^ H #.=.@XA } ^.",
":X2 3 e.q.I.hXN.(.P g. X4XXXH.F.K f.C.F.e.oXA.0.0.1XdXL.L.oX1Xr.H.J.Y.Y.Y.H.1 ;XVXjXBXgX3XOXf >X(.z.0X3XOX^ @XCX.XS I 3X4X_ #XS.",
"g.u.<.,.n. X|.L.n.i.d.C.1X XC.m.E b.f.d.,.h.d.0.U S.C.k.0.h.S.0.J.U.U.Y.Y.J.:.b.8X,X1XoX(.4X<.F.oX_.,XoX|.[ /.6XXXR ).,Xn.T z.9.",
"~ &X+.y n ~ q y -X#XI > K W I I M ( P k ' Q Q ' u n k l j d ' { <.< ; 2 1 B < ; r C j.R 2 ^.| _ M P ` T r ~ / ) Y _ $.h l q 9 = ",
"7.H.P.q.1.d.W 2 '.sXw.T }.6X .1 oXR , >X5X#Xi 2X~.` v p.T x x.*X>X[ c.rX_.i.x.x.u E.$Xz.d *XuX&Xl { #X[ e =.@X/ h / Q 6 O.#.# @ ",
"7.B.B.7.m.C.h.f w.A.A.4.v.M.:X<.h.1.3 0.w.k.K V.9.9.q.v.N.:.N.U.G.3 1.1.j.u.J.e.8.Z.oX9Xq.Z.oX1Xl.g.6X$XY 7XoXL.f.d.T 3 8.(./.^ ",
"f v Y - G ~ Q 6 ; ; ; ; ! +.!.2 < , L /.'.^ e N 2.B B W.s.N 2.n.i.K 3.s.P Y 3.v.4 3 b.v.:.e.P.F.Z v..Xm.q.A.1XN.3.h.t.c <.s.E.j ",
") = r t Q   6 O.P %.&X$.= = $.].2.P z < ; $./.M  .l 9 y o p 0 @ > : u > w J j _ #.A % o o o S S ; : u j s r W ; ; r L L r d u 5 ",
"1.,.n.3.1.; ` |.L.<X6X2XT U >X9XkX$Xw.1.4 z. Xz.v.i.u.Y 2 rXrX5X=X=XqX+.-XrX8XvXGX&.b {.{.@.] {.&Xq #././.*.| [ q : } #X| { %.} ",
">.>.n.1.>.4 0.e.0.i.b.`.b.u.f.9.B.v.w.1.* d. X$X>X%Xz.E 2 8X<XP. X1X6X< h.h.XXoX.XK 4 V.A.k.q.D.n.4 k.V.B.N.q.J.M < t.3X.X(.OXOX",
"; - r g d ; L z ; ) E.] M r s < f t.v ; . @.E.O./.N m N ( '.y.d.L.F.!., a.8.x.n.|.9.:.e.>.4.c 9.c U b.S.e.9..Xf.` v t._.'.m.'.`.",
"6 a Q y 7 $.^.F z p.) s !.!.E.f =X(.t.%.) ] ; - ~ S : H *.H q S K.c.S S ^.R  . .L i +.} a - p 0 5 j k ( ; v p.d : > d f L L L d ",
"i 3 v ) < h.|.x.3 M.v.3 5X$XL.q.<XH.G.E m.C.) 2 e.V.1 b.rX`.p.) b.|.P =XXX4.E n.~.2.7X5XOXs.JXHXqXp.(.z.0.7X(.!.= M v < > ^ b 8 ",
"; k f v 1 2.] M 3 1.B.y.>XoXS.U _.1XC.0.i.oX3.2 Z..X0.U ,X X1 ~.D.i.K !.`.<.:.3 z.3 M.P.v.3 i.~.u.d.B.1.2.a.`.v.4 e.J.>.<.w.d.> ",
"@ X X #   @ @ # : e = o 9 e e 9 = 7 7 6 9 y - # - - - - Q b 5 G 2.M t b m s M M ] k x ) u.v k M ; E I.G.i.T i.e.2 4.3.s 8 V s ; ",
"l l j M d z j r ^ #.G Q G y 0 a a G #.#.a X o O.+.Q ~ F G o G e S H A # % # G F G G D p p # @ # o.$ G @ @ 0 6 - @ @ 6 % % & & $ ",
"; h T c x ` Y ; <.u.u.}.Q.E.( '.>Xl.*XXXOX_ ` 3X%Xd.D.n.).K 2X1XL. X+X(.R p..XC.I.9XbX8X@X#X<XP.bX8XrXP h z.F.A.x.m.i.P #X .~.eX",
"8 s B B k n m V S.m.9.e.1.8.3 w.f.0..XD.S.j.m.fXgX1XoXH.<X3 v.Z.A.Z.Z.e.0.8.w.5.<.h.[.^.n ( '.(.y.t.~.< 2 f.A.Z.4.t.v * m k M 2.",
"w - e t > O 5 r ; - = d d L L +.u l p.N j L  .'._  .{ _ #Xg K Y 9.4.1 1 h z d N <.4.t.p.x ) a.8.|.y.[ d < <.1 1 >.c 3 * 1 f f 1 ",
" .x w.w.0.4 v h.A e ^ %.| +.].} q ; ; 7 S *.$.j e u / S ! ' z d / S A O G G # J #.o.O w q p @ @ 6 @ % o.p 6 @ p - & X @ 6 X X % ",
"9 8 s.2.M = k B r < s./.j.h.oXc.S 3.}.k.I ).n.i.3.z.*Xk.h.fX1Xn.oX7X$X/.6X6XE.*XvXrXR i.4X%X; M k.g o.HXMX5X> - k = a ] s.= 9 b "
};
